<svg width="1143" height="251" viewBox="0 0 1143 251" fill="none" xmlns="http://www.w3.org/2000/svg">
<path d="M0 185.691H36.0312V139.223H79.0536V185.691H115.085V62.1335H79.0536V106.453H36.0312V62.1335H0V185.691Z" fill="#EE4629"/>
<path d="M204.648 189.452C226.428 189.452 246.595 180.856 260.577 165.009L241.486 143.789C231.806 153.996 220.513 158.562 208.144 158.562C190.666 158.562 178.835 149.43 175.339 134.388H262.729C263.804 128.479 264.073 124.987 264.073 118.54C264.073 83.6218 237.453 58.373 202.497 58.373C165.121 58.373 137.964 86.3079 137.964 124.45C137.964 162.323 165.39 189.452 204.648 189.452ZM174.802 109.408C178.028 95.1718 187.977 86.3078 201.959 86.3078C215.404 86.3078 225.084 94.366 228.311 109.408H174.802Z" fill="#F680CD"/>
<circle cx="301.119" cy="133.316" r="16.0901" fill="black"/>
<path d="M399.792 188.173C419.365 188.173 438.145 179.98 452.164 167.294L431.532 141.658C422.804 150.38 413.546 154.609 403.23 154.609C385.244 154.609 374.399 143.244 374.399 127.387C374.399 107.037 389.211 92.7651 407.462 92.7651C419.894 92.7651 429.416 99.108 436.029 110.208L464.595 89.0651C453.751 70.8292 433.119 59.2005 409.578 59.2005C371.49 59.2005 337.897 90.3865 337.897 129.765C337.897 162.273 363.025 188.173 399.792 188.173Z" fill="#364CA2"/>
<path d="M461.649 250.545H497.886L601.043 62.9006H564.806L522.485 144.83L508.995 62.9006H474.345L496.828 186.852L461.649 250.545Z" fill="black"/>
<path d="M580.283 218.831H615.462L621.546 184.473H692.698L686.614 218.831H722.058L733.432 153.023H715.445L731.58 62.9006H629.217L620.753 109.944C616.256 137.43 605.411 153.023 592.715 153.023H591.393L580.283 218.831ZM639.003 152.23C647.203 142.451 653.022 129.237 656.196 111.001L658.841 95.1437H690.317L680.266 152.23H639.003Z" fill="#058264"/>
<path d="M748.019 184.473H811.235C842.183 184.473 862.02 164.651 862.02 137.958C862.02 117.344 844.299 99.3723 818.377 99.3723H798.275L804.887 62.9006H769.444L748.019 184.473ZM788.488 155.401L793.514 127.387H810.971C819.435 127.387 826.312 132.673 826.312 139.808C826.312 149.323 818.377 155.401 808.326 155.401H788.488Z" fill="#FC931F"/>
<path d="M941.754 188.173C979.05 188.173 1011.58 160.159 1011.58 120.78C1011.58 91.4437 990.159 67.1292 957.889 67.1292C944.664 67.1292 932.232 72.6792 923.239 81.1364C930.381 53.9148 943.606 43.079 968.998 43.079C995.184 43.079 1009.2 37.7932 1019.25 26.6931L1007.35 0C997.565 7.40006 988.307 10.0429 966.618 10.0429C920.858 10.8358 895.73 38.0575 885.679 96.7294C881.976 117.344 881.447 122.894 881.447 128.18C881.447 163.859 904.195 188.173 941.754 188.173ZM943.606 155.93C927.206 155.93 916.626 144.301 916.626 130.03C916.626 112.322 930.645 99.3723 947.309 99.3723C963.708 99.3723 974.553 109.68 974.553 123.951C974.553 141.394 960.27 155.93 943.606 155.93Z" fill="#EE4629"/>
<path d="M1061.99 188.173C1074.42 188.173 1085.8 183.152 1096.64 173.902L1094.79 184.473H1130.23L1141.34 120.251C1141.87 116.551 1142.4 112.851 1142.4 109.415C1142.4 80.3436 1120.71 59.2005 1086.32 59.2005C1069.93 59.2005 1055.38 65.5434 1041.09 75.5864L1057.49 101.751C1064.9 94.6151 1073.36 90.1222 1082.36 90.1222C1096.91 90.1222 1106.69 99.9009 1106.69 112.058C1106.69 113.644 1106.69 116.551 1105.63 119.194C1096.38 112.851 1083.68 108.887 1070.45 108.887C1042.68 108.887 1020.2 127.387 1020.2 152.23C1020.2 172.58 1036.33 188.173 1061.99 188.173ZM1074.69 161.48C1066.22 161.48 1056.44 157.516 1056.44 148.794C1056.44 139.544 1063.84 132.937 1075.48 132.937C1084.21 132.937 1092.94 136.637 1101.4 143.508C1098.76 153.816 1087.12 161.48 1074.69 161.48Z" fill="#F680CD"/>
</svg>
