<svg width="427" height="307" viewBox="0 0 427 307" fill="none" xmlns="http://www.w3.org/2000/svg">
<g clip-path="url(#clip0_158_407)">
<rect width="1281" height="608.551" transform="translate(0 -301)" fill="#FEDCD2"/>
<path d="M1292.85 182.808L1294.17 182.645L1294.82 111.371C1294.82 111.371 1196.73 118.379 1146.32 150.922C1080.18 193.627 1078.26 220.191 1048.35 292.981C1021.25 358.951 992.876 409.784 941.749 441.583C897.768 468.939 864.964 476.273 813.194 474.304C740.848 471.553 692.929 452.661 647.831 396.073C603.625 340.603 595.317 296.033 608.048 226.278C628.56 113.898 695.262 66.5942 696.184 -35.0578C696.816 -104.782 673.209 -151.965 619.287 -196.23C573.905 -233.484 530.068 -241.538 471.516 -236.91C403.469 -231.532 341.641 -171.834 313.258 -109.81C260.36 5.78248 186.924 236.87 -14.7891 212.06L-13.4547 279.846C46.9657 280.394 164.154 297.313 280.846 111.134C345.607 7.81062 350.064 -127.621 470.793 -157.182C572.038 -181.973 638.833 -73.1979 617.49 1.89666C578.534 138.964 500.162 229.578 549.985 352.73C596.736 468.289 677.344 538.264 801.598 549.373C898.763 558.061 977.934 535.279 1047 442.538C1126.51 335.772 1103.74 289.978 1167.05 229.79C1205.09 193.626 1241.01 189.198 1292.85 182.808Z" fill="#FEDCD2"/>
<path d="M201.328 304.509L424 92" stroke="#000200" stroke-width="4.44835"/>
<path d="M739.39 169.613L424.218 19.6548" stroke="#000200" stroke-width="4.44835"/>
<path d="M120.751 151.738L297.917 212.099M120.751 151.738L66.1582 1.24707M120.751 151.738L85.1972 305.523" stroke="#000200" stroke-width="4.44835"/>
<path d="M122.653 154.714L294.36 212.987L200.314 302.479H88.2393L122.653 154.714Z" fill="#FEDCD2"/>
<path d="M3.5498 1.75391H64.912L119.096 152.935L83.6757 302.987H3.5498V1.75391Z" fill="#FEDCD2"/>
<path d="M68.9697 2.58105H420.5V92.5L297.475 209.874L122.21 150.266L68.9697 2.58105Z" fill="#FEDCD2"/>
<path d="M422.471 96.8857L205.892 302.986H422.471V96.8857Z" fill="#FEDCD2"/>
<path d="M778.439 2.26172H426.493V18.4897L695.777 146.285L778.439 2.26172Z" fill="#FEDCD2"/>
<path d="M477.215 -158.767C578.451 -183.806 645.231 -73.9837 623.883 1.84024L699.156 1.83359C701.233 -9.86077 702.452 -22.2116 702.572 -35.4792C703.211 -105.879 679.611 -153.517 625.698 -198.206C580.324 -235.817 536.491 -243.944 477.945 -239.267C461.487 -237.952 440.316 -232.273 424.97 -225.283L424.962 -135.156C438.459 -144.006 459.061 -154.277 477.215 -158.767Z" fill="#FEDCD2" stroke="#000200" stroke-width="4.44792"/>
<rect x="2" y="-300" width="423" height="303" stroke="black" stroke-width="4"/>
<rect x="2" y="2" width="423" height="303" stroke="black" stroke-width="4"/>
</g>
<defs>
<clipPath id="clip0_158_407">
<rect width="1281" height="608.551" fill="white" transform="translate(0 -301)"/>
</clipPath>
</defs>
</svg>
