<svg width="427" height="307" viewBox="0 0 427 307" fill="none" xmlns="http://www.w3.org/2000/svg">
<g clip-path="url(#clip0_158_407)">
<rect width="1281" height="608.551" transform="translate(-427 -301)" fill="#FEDCD2"/>
<path d="M865.85 182.808L867.175 182.645L867.821 111.371C867.821 111.371 769.732 118.379 719.323 150.922C653.175 193.627 651.264 220.191 621.354 292.981C594.246 358.951 565.876 409.784 514.749 441.583C470.768 468.939 437.964 476.273 386.194 474.304C313.848 471.553 265.929 452.661 220.831 396.073C176.625 340.603 168.317 296.033 181.048 226.278C201.56 113.898 268.262 66.5942 269.184 -35.0578C269.816 -104.782 246.209 -151.965 192.287 -196.23C146.905 -233.484 103.068 -241.538 44.5165 -236.91C-23.5305 -231.532 -85.3588 -171.834 -113.742 -109.81C-166.64 5.78248 -240.076 236.87 -441.789 212.06L-440.455 279.846C-380.034 280.394 -262.846 297.313 -146.154 111.134C-81.3931 7.81062 -76.9357 -127.621 43.7934 -157.182C145.038 -181.973 211.833 -73.1979 190.49 1.89666C151.534 138.964 73.1617 229.578 122.985 352.73C169.736 468.289 250.344 538.264 374.598 549.373C471.763 558.061 550.934 535.279 619.997 442.538C699.505 335.772 676.738 289.978 740.049 229.79C778.089 193.626 814.008 189.198 865.85 182.808Z" fill="#FEDCD2"/>
<path d="M180.499 303.755L353.42 3.25369" stroke="#000200" stroke-width="4.44835"/>
<path d="M357.086 2.1751L267.677 304.706" stroke="#000200" stroke-width="4.44835"/>
<path d="M312.39 169.613L-2.78192 19.6548" stroke="#000200" stroke-width="4.44835"/>
<path d="M423 4H358L271 303H423V4Z" fill="#FEDCD2"/>
<path d="M352.35 9.49414L183.758 302.64H266.052L352.35 9.49414Z" fill="#FEDCD2"/>
<path d="M351.439 2.26172H-0.506836V18.4897L268.777 146.285L351.439 2.26172Z" fill="#FEDCD2"/>
<path d="M50.2148 -158.767C151.451 -183.806 218.231 -73.9837 196.883 1.84024L272.156 1.83359C274.233 -9.86077 275.452 -22.2116 275.572 -35.4792C276.211 -105.879 252.611 -153.517 198.698 -198.206C153.324 -235.817 109.491 -243.944 50.9449 -239.267C34.4871 -237.952 13.3157 -232.273 -2.02971 -225.283L-2.03761 -135.156C11.4587 -144.006 32.061 -154.277 50.2148 -158.767Z" fill="#FEDCD2" stroke="#000200" stroke-width="4.44792"/>
<path fill-rule="evenodd" clip-rule="evenodd" d="M195.07 2.25558C215.612 -72.7765 150.537 -181.144 51.9708 -156.405C35.5568 -152.285 17.0901 -143.245 4 -134.968V2.25558H195.07Z" fill="#FEDCD2"/>
<path d="M0.507812 301.973V23.5605L266.242 149.835L179.016 301.973H0.507812Z" fill="#FEDCD2"/>
<rect x="2" y="-299" width="423" height="301" stroke="black" stroke-width="4"/>
<rect x="2" y="2" width="423" height="303" stroke="black" stroke-width="4"/>
</g>
<defs>
<clipPath id="clip0_158_407">
<rect width="1281" height="608.551" fill="white" transform="translate(-427 -301)"/>
</clipPath>
</defs>
</svg>
