<svg width="427" height="307" viewBox="0 0 427 307" fill="none" xmlns="http://www.w3.org/2000/svg">
<g clip-path="url(#clip0_158_407)">
<rect width="1281" height="608.551" transform="translate(-854 -302)" fill="#FEDCD2"/>
<path d="M438.85 181.808L440.175 181.645L440.821 110.371C440.821 110.371 342.732 117.379 292.323 149.922C226.175 192.627 224.264 219.191 194.354 291.981C167.246 357.951 138.876 408.784 87.7489 440.583C43.7677 467.939 10.9642 475.273 -40.8056 473.304C-113.152 470.553 -161.071 451.661 -206.169 395.073C-250.375 339.603 -258.683 295.033 -245.952 225.278C-225.44 112.898 -158.738 65.5942 -157.816 -36.0578C-157.184 -105.782 -180.791 -152.965 -234.713 -197.23C-280.095 -234.484 -323.932 -242.538 -382.484 -237.91C-450.531 -232.532 -512.359 -172.834 -540.742 -110.81C-593.64 4.78248 -667.076 235.87 -868.789 211.06L-867.455 278.846C-807.034 279.394 -689.846 296.313 -573.154 110.134C-508.393 6.81062 -503.936 -128.621 -383.207 -158.182C-281.962 -182.973 -215.167 -74.1979 -236.51 0.89666C-275.466 137.964 -353.838 228.578 -304.015 351.73C-257.264 467.289 -176.656 537.264 -52.4021 548.373C44.7628 557.061 123.934 534.279 192.997 441.538C272.505 334.772 249.738 288.978 313.049 228.79C351.089 192.626 387.008 188.198 438.85 181.808Z" fill="#FEDCD2"/>
<path d="M169.913 303.987L101.734 151.732" stroke="#000200" stroke-width="4.44835"/>
<mask id="path-3-inside-1_158_407" fill="white">
<path fill-rule="evenodd" clip-rule="evenodd" d="M39.9411 175.531C115.708 175.531 177.129 114.015 177.129 38.132C177.129 24.5364 175.157 11.402 171.485 -1H0V169.617C12.6379 173.462 26.0484 175.531 39.9411 175.531Z"/>
</mask>
<path fill-rule="evenodd" clip-rule="evenodd" d="M39.9411 175.531C115.708 175.531 177.129 114.015 177.129 38.132C177.129 24.5364 175.157 11.402 171.485 -1H0V169.617C12.6379 173.462 26.0484 175.531 39.9411 175.531Z" fill="#FEDCD2"/>
<path d="M171.485 -1L175.75 -2.26304L174.807 -5.44835H171.485V-1ZM0 -1V-5.44835H-4.44835V-1H0ZM0 169.617H-4.44835V172.913L-1.29505 173.872L0 169.617ZM172.68 38.132C172.68 111.565 113.245 171.082 39.9411 171.082V179.979C118.171 179.979 181.577 116.465 181.577 38.132H172.68ZM167.219 0.263036C170.772 12.2593 172.68 24.9685 172.68 38.132H181.577C181.577 24.1043 179.543 10.5447 175.75 -2.26304L167.219 0.263036ZM0 3.44835H171.485V-5.44835H0V3.44835ZM4.44835 169.617V-1H-4.44835V169.617H4.44835ZM39.9411 171.082C26.492 171.082 13.5178 169.08 1.29505 165.361L-1.29505 173.872C11.758 177.844 25.6047 179.979 39.9411 179.979V171.082Z" fill="#000200" mask="url(#path-3-inside-1_158_407)"/>
<path d="M427.485 180.331L428.748 180.168L429.394 108.901C429.394 108.901 335.905 115.949 287.848 148.511C224.786 191.239 222.954 217.801 194.416 290.597C192.838 294.622 191.277 301.114 189.686 305.026L259.132 305.026C268.968 278.705 281.792 253.072 307.568 227.362C343.838 191.185 378.073 186.743 427.485 180.331Z" fill="#FEDCD2" stroke="#000200" stroke-width="4.44792"/>
<path fill-rule="evenodd" clip-rule="evenodd" d="M104.147 159.486C84.046 170.572 60.941 176.88 36.3628 176.88C23.7882 176.88 11.5993 175.229 0.000976562 172.131V300.973H166.338L104.147 159.486Z" fill="#FEDCD2"/>
<path fill-rule="evenodd" clip-rule="evenodd" d="M263.992 300.465C273.315 275.438 284.025 253.183 308.207 228.503C343.049 192.943 375.97 188.045 422.944 181.799V300.465H263.992Z" fill="#FEDCD2"/>
<path fill-rule="evenodd" clip-rule="evenodd" d="M177.321 36.7317C177.321 88.5288 149.306 133.783 107.6 158.167L170.901 300.973H187.938C189.389 297.393 190.833 293.765 192.274 290.091C196.449 279.441 200.052 269.781 203.359 260.915C222.658 209.177 231.869 184.482 285.705 148.004C330.625 117.568 415.238 109.423 426.095 108.49L427 107.758V0.24693H172.54C175.658 11.882 177.321 24.1127 177.321 36.7317Z" fill="#FEDCD2"/>
<rect x="2" y="1.5" width="423" height="303" stroke="black" stroke-width="4"/>
</g>
<defs>
<clipPath id="clip0_158_407">
<rect width="1281" height="608.551" fill="white" transform="translate(-854 -302)"/>
</clipPath>
</defs>
</svg>
