<svg width="427" height="307" viewBox="0 0 427 307" fill="none" xmlns="http://www.w3.org/2000/svg">
<g clip-path="url(#clip0_158_407)">
<rect width="1281" height="608.551" transform="translate(-427)" fill="#FEDCD2"/>
<path fill-rule="evenodd" clip-rule="evenodd" d="M274.683 299.202C277.413 284.659 278.731 269.202 278.011 252.231C276.145 208.243 264.49 174.349 241.023 145.036H422.942V299.202H274.683Z" fill="#FEDCD2"/>
<path d="M865.85 483.808L867.175 483.645L867.821 412.371C867.821 412.371 769.732 419.379 719.323 451.922C653.175 494.627 651.264 521.191 621.354 593.981C594.246 659.951 565.876 710.784 514.749 742.583C470.768 769.939 437.964 777.273 386.194 775.304C313.848 772.553 265.929 753.661 220.831 697.073C176.625 641.603 168.317 597.033 181.048 527.278C201.56 414.898 268.262 367.594 269.184 265.942C269.816 196.218 246.209 149.035 192.287 104.77C146.905 67.5156 103.068 59.4624 44.5165 64.0899C-23.5305 69.4679 -85.3588 129.166 -113.742 191.19C-166.64 306.782 -240.076 537.87 -441.789 513.06L-440.455 580.846C-380.034 581.394 -262.846 598.313 -146.154 412.134C-81.3931 308.811 -76.9357 173.379 43.7934 143.818C145.038 119.027 211.833 227.802 190.49 302.897C151.534 439.964 73.1617 530.578 122.985 653.73C169.736 769.289 250.344 839.264 374.598 850.373C471.763 859.061 550.934 836.279 619.997 743.538C699.505 636.772 676.738 590.978 740.049 530.79C778.089 494.626 814.008 490.198 865.85 483.808Z" fill="#FEDCD2"/>
<path d="M180.499 604.755L353.42 304.254" stroke="#000200" stroke-width="4.44835"/>
<path d="M424.89 245.883L641.161 44.0091" stroke="#000200" stroke-width="4.44835"/>
<path d="M356.592 304.838L267.678 605.706" stroke="#000200" stroke-width="4.44835"/>
<path d="M312.39 470.613L-2.78192 320.655" stroke="#000200" stroke-width="4.44835"/>
<path d="M132.866 -12.1717L367.158 143.009" stroke="#000200" stroke-width="4.44835"/>
<path d="M422.634 302.934H359.467L270.5 603.197H422.634V302.934Z" fill="#FEDCD2"/>
<path d="M422.635 0H154.845L372.231 143.517H422.635V0Z" fill="#FEDCD2"/>
<path d="M351.439 303.262H-0.506836V319.49L268.777 447.285L351.439 303.262Z" fill="#FEDCD2"/>
<path d="M50.2084 142.925C151.447 117.666 218.218 228.412 196.865 304.878L272.138 304.866C274.215 293.073 275.435 280.617 275.557 267.237C276.201 196.243 252.604 148.204 198.695 103.141C153.323 65.2162 109.491 57.0235 50.9447 61.7451C34.4869 63.0723 13.3149 68.801 -2.031 75.8508L-2.04581 166.74C11.4512 157.814 32.0543 147.455 50.2084 142.925Z" fill="#FEDCD2" stroke="#000200" stroke-width="4.44792"/>
<path d="M237.841 142.989L424.533 142.989" stroke="#000200" stroke-width="4.44835"/>
<path fill-rule="evenodd" clip-rule="evenodd" d="M0.000976562 0H147.274L360.06 140.981H238.702C227.954 127.001 214.763 113.764 198.978 100.777C153.537 63.391 109.642 55.3093 51.0139 59.9532C35.2492 61.2019 15.1656 66.4192 0.000976562 72.9493V0Z" fill="#FEDCD2"/>
<path fill-rule="evenodd" clip-rule="evenodd" d="M195.07 303.256C215.612 228.224 150.537 119.856 51.9708 144.595C35.5568 148.715 17.0901 157.755 4 166.032V303.256H195.07Z" fill="#FEDCD2"/>
<rect x="2" y="2" width="423" height="303" stroke="black" stroke-width="4"/>
</g>
<defs>
<clipPath id="clip0_158_407">
<rect width="1281" height="608.551" fill="white" transform="translate(-427)"/>
</clipPath>
</defs>
</svg>
