<svg width="427" height="306" viewBox="0 0 427 306" fill="none" xmlns="http://www.w3.org/2000/svg">
<g clip-path="url(#clip0_158_407)">
<rect width="1281" height="608.551" fill="#FEDCD2"/>
<path d="M1292.85 483.808L1294.17 483.645L1294.82 412.371C1294.82 412.371 1196.73 419.379 1146.32 451.922C1080.18 494.627 1078.26 521.191 1048.35 593.981C1021.25 659.951 992.876 710.784 941.749 742.583C897.768 769.939 864.964 777.273 813.194 775.304C740.848 772.553 692.929 753.661 647.831 697.073C603.625 641.603 595.317 597.033 608.048 527.278C628.56 414.898 695.262 367.594 696.184 265.942C696.816 196.218 673.209 149.035 619.287 104.77C573.905 67.5156 530.068 59.4624 471.516 64.0899C403.469 69.4679 341.641 129.166 313.258 191.19C260.36 306.782 186.924 537.87 -14.7891 513.06L-13.4547 580.846C46.9657 581.394 164.154 598.313 280.846 412.134C345.607 308.811 350.064 173.379 470.793 143.818C572.038 119.027 638.833 227.802 617.49 302.897C578.534 439.964 500.162 530.578 549.985 653.73C596.736 769.289 677.344 839.264 801.598 850.373C898.763 859.061 977.934 836.279 1047 743.538C1126.51 636.772 1103.74 590.978 1167.05 530.79C1205.09 494.626 1241.01 490.198 1292.85 483.808Z" fill="#FEDCD2"/>
<line x1="-2.23991" y1="176.641" x2="423.372" y2="260.509" stroke="#000200" stroke-width="4.44835"/>
<path d="M739.39 470.613L424.218 320.655" stroke="#000200" stroke-width="4.44835"/>
<path d="M120.751 452.738L297.917 513.099M120.751 452.738L66.1582 302.247M120.751 452.738L85.1972 606.523" stroke="#000200" stroke-width="4.44835"/>
<line x1="309.44" y1="-10.0356" x2="111.933" y2="198.147" stroke="#000200" stroke-width="4.44835"/>
<path d="M4 4H293L110 197L4 175.88V4Z" fill="#FEDCD2"/>
<path d="M0 179.269L422.943 262.691V299.655H0V179.269Z" fill="#FEDCD2"/>
<path d="M3.5498 302.754H64.912L119.096 453.935L83.6757 603.987H3.5498V302.754Z" fill="#FEDCD2"/>
<path d="M68.9697 303.581H420.5V393.5L297.475 510.874L122.21 451.266L68.9697 303.581Z" fill="#FEDCD2"/>
<path d="M778.439 303.262H426.493V319.49L695.777 447.285L778.439 303.262Z" fill="#FEDCD2"/>
<path d="M477.215 142.233C578.451 117.194 645.231 227.016 623.883 302.84L699.156 302.834C701.233 291.139 702.452 278.788 702.572 265.521C703.211 195.121 679.611 147.483 625.698 102.794C580.324 65.183 536.491 57.0556 477.945 61.7331C461.487 63.048 440.316 68.7271 424.97 75.7167L424.962 165.844C438.459 156.994 459.061 146.723 477.215 142.233Z" fill="#FEDCD2" stroke="#000200" stroke-width="4.44792"/>
<path d="M300 4H422V76.6619V258.5L289 231.5L115 198.626L300 4Z" fill="#FEDCD2"/>
<rect x="2" y="2" width="423" height="302" stroke="black" stroke-width="4"/>
<rect x="2" y="303" width="423" height="303" stroke="black" stroke-width="4"/>
</g>
<defs>
<clipPath id="clip0_158_407">
<rect width="1281" height="608.551" fill="white"/>
</clipPath>
</defs>
</svg>
