<svg width="427" height="307" viewBox="0 0 427 307" fill="none" xmlns="http://www.w3.org/2000/svg">
<g clip-path="url(#clip0_158_407)">
<rect width="1281" height="608.551" transform="translate(-854)" fill="#FEDCD2"/>
<path d="M438.85 483.808L440.175 483.645L440.821 412.371C440.821 412.371 342.732 419.379 292.323 451.922C226.175 494.627 224.264 521.191 194.354 593.981C167.246 659.951 138.876 710.784 87.7489 742.583C43.7677 769.939 10.9642 777.273 -40.8056 775.304C-113.152 772.553 -161.071 753.661 -206.169 697.073C-250.375 641.603 -258.683 597.033 -245.952 527.278C-225.44 414.898 -158.738 367.594 -157.816 265.942C-157.184 196.218 -180.791 149.035 -234.713 104.77C-280.095 67.5156 -323.932 59.4624 -382.484 64.0899C-450.531 69.4679 -512.359 129.166 -540.742 191.19C-593.64 306.782 -667.076 537.87 -868.789 513.06L-867.455 580.846C-807.034 581.394 -689.846 598.313 -573.154 412.134C-508.393 308.811 -503.936 173.379 -383.207 143.818C-281.962 119.027 -215.167 227.802 -236.51 302.897C-275.466 439.964 -353.838 530.578 -304.015 653.73C-257.264 769.289 -176.656 839.264 -52.4021 850.373C44.7628 859.061 123.934 836.279 192.997 743.538C272.505 636.772 249.738 590.978 313.049 530.79C351.089 494.626 387.008 490.198 438.85 483.808Z" fill="#FEDCD2"/>
<path d="M-2.10997 245.883L214.161 44.0091" stroke="#000200" stroke-width="4.44835"/>
<path d="M445.112 157.129L98.1409 -12.4545" stroke="#000200" stroke-width="4.44835"/>
<mask id="path-4-inside-1_158_407" fill="white">
<path fill-rule="evenodd" clip-rule="evenodd" d="M36.561 479.531C114.194 479.531 177.129 418.015 177.129 342.132C177.129 328.536 175.109 315.402 171.346 303H-4.36426V473.616C8.58503 477.462 22.3259 479.531 36.561 479.531Z"/>
</mask>
<path fill-rule="evenodd" clip-rule="evenodd" d="M36.561 479.531C114.194 479.531 177.129 418.015 177.129 342.132C177.129 328.536 175.109 315.402 171.346 303H-4.36426V473.616C8.58503 477.462 22.3259 479.531 36.561 479.531Z" fill="#FEDCD2"/>
<path d="M171.346 303L175.602 301.708L174.645 298.552H171.346V303ZM-4.36426 303V298.552H-8.81261V303H-4.36426ZM-4.36426 473.616H-8.81261V476.936L-5.63072 477.881L-4.36426 473.616ZM172.68 342.132C172.68 415.463 111.834 475.082 36.561 475.082V483.979C116.555 483.979 181.577 420.567 181.577 342.132H172.68ZM167.089 304.292C170.726 316.28 172.68 328.979 172.68 342.132H181.577C181.577 328.093 179.491 314.524 175.602 301.708L167.089 304.292ZM-4.36426 307.448H171.346V298.552H-4.36426V307.448ZM0.0840902 473.616V303H-8.81261V473.616H0.0840902ZM36.561 475.082C22.7586 475.082 9.44415 473.077 -3.0978 469.352L-5.63072 477.881C7.72592 481.848 21.8932 483.979 36.561 483.979V475.082Z" fill="#000200" mask="url(#path-4-inside-1_158_407)"/>
<path d="M214.493 46.708L0.0830078 246.884V298.929H422.436V148.588L214.493 46.708Z" fill="#FEDCD2"/>
<path d="M118.854 0H0.0830078V241.1L210.49 44.4835L118.854 0Z" fill="#FEDCD2"/>
<path d="M427.124 0H128.195L427.124 145.906V0Z" fill="#FEDCD2"/>
<path fill-rule="evenodd" clip-rule="evenodd" d="M177.321 338.732C177.321 390.529 149.306 435.783 107.6 460.167L170.901 602.973H187.938C189.389 599.393 190.833 595.765 192.274 592.091C196.449 581.441 200.052 571.781 203.359 562.915C222.658 511.177 231.869 486.482 285.705 450.004C330.625 419.568 415.238 411.423 426.095 410.49L427 409.758V302.247H172.54C175.658 313.882 177.321 326.113 177.321 338.732Z" fill="#FEDCD2"/>
<rect x="2" y="2" width="423" height="303" stroke="black" stroke-width="4"/>
</g>
<defs>
<clipPath id="clip0_158_407">
<rect width="1281" height="608.551" fill="white" transform="translate(-854)"/>
</clipPath>
</defs>
</svg>
