<svg width="1281" height="609" viewBox="0 0 1281 609" fill="none" xmlns="http://www.w3.org/2000/svg">
<g clip-path="url(#clip0_158_407)">
<rect width="1281" height="608.551" fill="#FEDCD2"/>
<path fill-rule="evenodd" clip-rule="evenodd" d="M701.683 299.202C704.413 284.659 705.731 269.202 705.011 252.231C703.145 208.243 691.49 174.349 668.023 145.036H849.942V299.202H701.683Z" fill="#FEDCD2"/>
<path d="M1292.85 483.808L1294.17 483.645L1294.82 412.371C1294.82 412.371 1196.73 419.379 1146.32 451.922C1080.18 494.627 1078.26 521.191 1048.35 593.981C1021.25 659.951 992.876 710.784 941.749 742.583C897.768 769.939 864.964 777.273 813.194 775.304C740.849 772.553 692.929 753.661 647.832 697.073C603.625 641.603 595.317 597.033 608.048 527.278C628.56 414.898 695.262 367.594 696.184 265.942C696.816 196.218 673.209 149.035 619.287 104.77C573.906 67.5156 530.068 59.4624 471.517 64.0899C403.47 69.4679 341.641 129.166 313.258 191.19C260.36 306.782 186.924 537.87 -14.7891 513.06L-13.4547 580.846C46.9657 581.394 164.154 598.313 280.846 412.134C345.607 308.811 350.064 173.379 470.793 143.818C572.038 119.027 638.833 227.802 617.49 302.897C578.534 439.964 500.162 530.578 549.985 653.73C596.736 769.289 677.344 839.264 801.598 850.373C898.763 859.061 977.934 836.279 1047 743.538C1126.51 636.772 1103.74 590.978 1167.05 530.79C1205.09 494.626 1241.01 490.198 1292.85 483.808Z" fill="#FEDCD2"/>
<line x1="-2.23991" y1="176.641" x2="423.372" y2="260.509" stroke="#000200" stroke-width="4.44835"/>
<path d="M201.328 605.509L425.385 391.829" stroke="#000200" stroke-width="4.44835"/>
<path d="M607.499 604.755L782.465 300.71" stroke="#000200" stroke-width="4.44835"/>
<path d="M851.89 245.883L1068.16 44.0091" stroke="#000200" stroke-width="4.44835"/>
<path d="M784.599 301.445L694.678 605.706" stroke="#000200" stroke-width="4.44835"/>
<path d="M739.39 470.613L424.218 320.655" stroke="#000200" stroke-width="4.44835"/>
<path d="M1299.11 157.129L952.141 -12.4545" stroke="#000200" stroke-width="4.44835"/>
<path d="M1023.91 605.987L955.734 453.732" stroke="#000200" stroke-width="4.44835"/>
<path d="M559.866 -12.1717L794.158 143.009" stroke="#000200" stroke-width="4.44835"/>
<path d="M120.751 452.738L297.917 513.099M120.751 452.738L66.1582 302.247M120.751 452.738L85.1972 606.523" stroke="#000200" stroke-width="4.44835"/>
<line x1="309.44" y1="-10.0356" x2="111.933" y2="198.147" stroke="#000200" stroke-width="4.44835"/>
<mask id="path-14-inside-1_158_407" fill="white">
<path fill-rule="evenodd" clip-rule="evenodd" d="M890.561 479.531C968.194 479.531 1031.13 417.046 1031.13 339.967C1031.13 326.157 1029.11 312.815 1025.35 300.218H849.636V473.524C862.585 477.43 876.326 479.531 890.561 479.531Z"/>
</mask>
<path fill-rule="evenodd" clip-rule="evenodd" d="M890.561 479.531C968.194 479.531 1031.13 417.046 1031.13 339.967C1031.13 326.157 1029.11 312.815 1025.35 300.218H849.636V473.524C862.585 477.43 876.326 479.531 890.561 479.531Z" fill="#FEDCD2"/>
<path d="M1025.35 300.218L1029.61 298.945L1028.66 295.769H1025.35V300.218ZM849.636 300.218V295.769H845.187V300.218H849.636ZM849.636 473.524H845.187V476.828L848.351 477.782L849.636 473.524ZM1026.68 339.967C1026.68 414.559 965.768 475.083 890.561 475.083V483.979C970.621 483.979 1035.58 419.533 1035.58 339.967H1026.68ZM1021.08 301.491C1024.72 313.68 1026.68 326.593 1026.68 339.967H1035.58C1035.58 325.721 1033.49 311.951 1029.61 298.945L1021.08 301.491ZM849.636 304.666H1025.35V295.769H849.636V304.666ZM854.084 473.524V300.218H845.187V473.524H854.084ZM890.561 475.083C876.766 475.083 863.457 473.047 850.921 469.265L848.351 477.782C861.713 481.813 875.886 483.979 890.561 483.979V475.083Z" fill="#000200" mask="url(#path-14-inside-1_158_407)"/>
<path d="M0 0H296.705L110.319 196.617L0 175.101V0Z" fill="#FEDCD2"/>
<path d="M0 179.269L422.943 262.691V299.655H0V179.269Z" fill="#FEDCD2"/>
<path d="M122.653 455.714L294.36 513.987L200.314 603.479H88.2393L122.653 455.714Z" fill="#FEDCD2"/>
<path d="M1068.49 46.708L854.083 246.884V298.929H1276.44V148.588L1068.49 46.708Z" fill="#FEDCD2"/>
<path d="M972.854 0H854.083V241.1L1064.49 44.4835L972.854 0Z" fill="#FEDCD2"/>
<path d="M849.634 302.934H786.467L697.5 603.197H849.634V302.934Z" fill="#FEDCD2"/>
<path d="M3.5498 302.754H64.912L119.096 453.935L83.6757 603.987H3.5498V302.754Z" fill="#FEDCD2"/>
<path d="M68.9697 303.581H422.474V392.993L297.475 510.874L122.21 451.266L68.9697 303.581Z" fill="#FEDCD2"/>
<path d="M849.635 0H581.845L799.231 143.517H849.635V0Z" fill="#FEDCD2"/>
<path d="M1281.12 0H982.195L1281.12 145.906V0Z" fill="#FEDCD2"/>
<path d="M779.35 310.494L610.758 603.64H693.052L779.35 310.494Z" fill="#FEDCD2"/>
<path d="M422.471 397.886L205.892 603.986H422.471V397.886Z" fill="#FEDCD2"/>
<path d="M778.439 303.262H426.493V319.49L695.777 447.285L778.439 303.262Z" fill="#FEDCD2"/>
<path d="M477.222 141.439C578.457 116.651 645.246 225.415 623.905 300.502L699.178 300.502C701.253 288.922 702.471 276.691 702.591 263.551C703.223 193.834 679.618 146.655 625.702 102.395C580.324 65.1441 536.491 57.0917 477.945 61.7188C461.488 63.0195 440.317 68.6417 424.972 75.5622L424.972 164.816C438.468 156.053 459.069 145.884 477.222 141.439Z" fill="#FEDCD2" stroke="#000200" stroke-width="4.44792"/>
<path d="M664.841 142.989L851.533 142.989" stroke="#000200" stroke-width="4.44835"/>
<path d="M301.44 0H421.101L421.99 73.8426L421.101 258.127L291.654 233.093L114.609 197.788L301.44 0Z" fill="#FEDCD2"/>
<path d="M1281.48 482.331L1282.75 482.168L1283.39 410.901C1283.39 410.901 1189.91 417.949 1141.85 450.511C1078.79 493.239 1076.95 519.801 1048.42 592.597C1046.84 596.622 1045.28 603.114 1043.69 607.026L1113.13 607.026C1122.97 580.705 1135.79 555.072 1161.57 529.362C1197.84 493.185 1232.07 488.743 1281.48 482.331Z" fill="#FEDCD2" stroke="#000200" stroke-width="4.44792"/>
<path fill-rule="evenodd" clip-rule="evenodd" d="M427.001 0H574.274L787.06 140.981H665.702C654.954 127.001 641.763 113.764 625.978 100.777C580.537 63.391 536.642 55.3093 478.014 59.9532C462.249 61.2019 442.166 66.4192 427.001 72.9493V0Z" fill="#FEDCD2"/>
<path fill-rule="evenodd" clip-rule="evenodd" d="M622.973 299.255C644.042 225.595 577.297 119.209 476.202 143.496C459.367 147.541 440.427 156.415 427.001 164.541V299.255H622.973Z" fill="#FEDCD2"/>
<path d="M427.508 602.973V324.561L693.242 450.835L606.016 602.973H427.508Z" fill="#FEDCD2"/>
<path fill-rule="evenodd" clip-rule="evenodd" d="M958.147 461.486C938.046 472.572 914.941 478.88 890.363 478.88C877.788 478.88 865.599 477.229 854.001 474.131V602.973H1020.34L958.147 461.486Z" fill="#FEDCD2"/>
<path fill-rule="evenodd" clip-rule="evenodd" d="M1117.99 602.465C1127.31 577.438 1138.02 555.183 1162.21 530.503C1197.05 494.943 1229.97 490.045 1276.94 483.799V602.465H1117.99Z" fill="#FEDCD2"/>
<path fill-rule="evenodd" clip-rule="evenodd" d="M1031.32 338.732C1031.32 390.529 1003.31 435.783 961.601 460.167L1024.9 602.973H1041.94C1043.39 599.393 1044.83 595.765 1046.27 592.091C1050.45 581.441 1054.05 571.781 1057.36 562.915C1076.66 511.177 1085.87 486.482 1139.71 450.004C1184.63 419.568 1269.24 411.423 1280.09 410.49L1281 409.758V302.247H1026.54C1029.66 313.882 1031.32 326.113 1031.32 338.732Z" fill="#FEDCD2"/>
<line x1="424.777" y1="603.48" x2="424.818" y2="0.000395996" stroke="#000200" stroke-width="4.44835"/>
<line x1="1.32465" y1="608.552" x2="1.32465" y2="3.04254" stroke="#000200" stroke-width="4.44835"/>
<line x1="-40.0361" y1="301.129" x2="1320.8" y2="301.129" stroke="#000200" stroke-width="4.44835"/>
<line x1="-40.0361" y1="606.425" x2="1320.8" y2="606.425" stroke="#000200" stroke-width="4.44835"/>
<line x1="851.776" y1="604.494" x2="851.859" y2="-0.000245092" stroke="#000200" stroke-width="4.44835"/>
<path d="M1278.86 605.528L1278.86 -1.01433" stroke="#000200" stroke-width="4.44835"/>
<line x1="-18.259" y1="1.6359" x2="1342.58" y2="-0.254146" stroke="#000200" stroke-width="4.56413"/>
</g>
<defs>
<clipPath id="clip0_158_407">
<rect width="1281" height="608.551" fill="white"/>
</clipPath>
</defs>
</svg>
