<svg width="421" height="307" viewBox="0 0 421 307" fill="none" xmlns="http://www.w3.org/2000/svg">
<rect x="2.05166" y="2.05166" width="416.897" height="302.825" fill="#FEDCD2" stroke="black" stroke-width="4.10331"/>
<rect x="4.10352" y="4.10352" width="412.793" height="43.4951" fill="#F680CD"/>
<circle cx="44.9761" cy="25.9761" r="8.97614" fill="#EE4629"/>
<circle cx="68.5005" cy="25.9761" r="8.97614" fill="#FC931F"/>
<circle cx="92.024" cy="25.9761" r="8.97614" fill="#058264"/>
<path d="M35.0484 112V92.8293H46.7084V112H43.4257V95.7968H38.331V112H35.0484ZM56.1488 112.236C54.2931 112.236 52.8224 111.729 51.737 110.713C50.6515 109.68 50.1088 108.297 50.1088 106.564V102.992C50.1088 101.259 50.6515 99.8848 51.737 98.8694C52.8224 97.8365 54.2931 97.32 56.1488 97.32C58.0046 97.32 59.4753 97.8365 60.5607 98.8694C61.6462 99.8848 62.1889 101.25 62.1889 102.966V106.564C62.1889 108.297 61.6462 109.68 60.5607 110.713C59.4753 111.729 58.0046 112.236 56.1488 112.236ZM56.1488 109.374C57.0242 109.374 57.6983 109.138 58.171 108.665C58.6612 108.175 58.9063 107.474 58.9063 106.564V102.992C58.9063 102.082 58.6612 101.39 58.171 100.918C57.6983 100.428 57.0242 100.182 56.1488 100.182C55.2735 100.182 54.5907 100.428 54.1005 100.918C53.6278 101.39 53.3914 102.082 53.3914 102.992V106.564C53.3914 107.474 53.6278 108.175 54.1005 108.665C54.5907 109.138 55.2735 109.374 56.1488 109.374ZM73.8354 112V107.168C73.5727 107.238 73.1788 107.299 72.6536 107.352C72.1459 107.387 71.5944 107.404 70.9991 107.404C69.0208 107.404 67.5502 107.002 66.5873 106.196C65.6419 105.373 65.1692 104.104 65.1692 102.388V97.5563H68.4518V102.231C68.4518 103.001 68.6794 103.561 69.1346 103.912C69.6073 104.262 70.3514 104.437 71.3668 104.437C71.892 104.437 72.3822 104.419 72.8374 104.384C73.3101 104.349 73.6428 104.305 73.8354 104.253V97.5563H77.1443V112H73.8354ZM83.1708 116.727L85.2192 111.212L79.6518 97.5563H83.2233L86.0595 104.936C86.2171 105.338 86.3659 105.829 86.506 106.406C86.646 106.967 86.7511 107.431 86.8211 107.798C86.9087 107.431 87.0225 106.967 87.1625 106.406C87.3201 105.829 87.4689 105.338 87.609 104.936L90.3139 97.5563H93.7278L86.611 116.727H83.1708ZM96.104 112V97.5563H102.564C104.157 97.5563 105.418 97.8977 106.346 98.5805C107.274 99.2458 107.738 100.139 107.738 101.259C107.738 102.135 107.449 102.844 106.871 103.386C106.311 103.912 105.549 104.183 104.586 104.2V104.358C105.689 104.393 106.574 104.726 107.239 105.356C107.904 105.986 108.237 106.827 108.237 107.877C108.237 109.138 107.755 110.144 106.792 110.897C105.847 111.632 104.56 112 102.932 112H96.104ZM99.3079 103.491H102.486C103.133 103.491 103.641 103.343 104.009 103.045C104.376 102.73 104.56 102.301 104.56 101.758C104.56 101.215 104.376 100.795 104.009 100.498C103.641 100.182 103.133 100.025 102.486 100.025H99.3079V103.491ZM99.3079 109.531H102.748C103.466 109.531 104.026 109.365 104.429 109.032C104.832 108.682 105.033 108.201 105.033 107.588C105.033 106.975 104.832 106.503 104.429 106.17C104.026 105.82 103.466 105.645 102.748 105.645H99.3079V109.531ZM117.31 112.263C116.084 112.263 115.007 112.035 114.079 111.58C113.169 111.107 112.46 110.451 111.952 109.61C111.445 108.752 111.191 107.746 111.191 106.59V102.966C111.191 101.811 111.445 100.813 111.952 99.9724C112.46 99.1145 113.169 98.458 114.079 98.0028C115.007 97.5301 116.084 97.2937 117.31 97.2937C119.13 97.2937 120.583 97.7664 121.669 98.7118C122.754 99.6397 123.323 100.909 123.376 102.52H120.172C120.12 101.767 119.831 101.189 119.305 100.786C118.798 100.366 118.132 100.156 117.31 100.156C116.434 100.156 115.743 100.401 115.235 100.892C114.727 101.364 114.473 102.047 114.473 102.94V106.59C114.473 107.483 114.727 108.175 115.235 108.665C115.743 109.155 116.434 109.4 117.31 109.4C118.15 109.4 118.824 109.199 119.332 108.796C119.839 108.376 120.12 107.789 120.172 107.037H123.376C123.323 108.647 122.754 109.925 121.669 110.871C120.583 111.799 119.13 112.263 117.31 112.263ZM130.847 112V100.498H125.91V97.5563H139.093V100.498H134.156V112H130.847ZM141.915 112V97.5563H148.376C149.969 97.5563 151.229 97.8977 152.157 98.5805C153.085 99.2458 153.549 100.139 153.549 101.259C153.549 102.135 153.26 102.844 152.683 103.386C152.122 103.912 151.361 104.183 150.398 104.2V104.358C151.501 104.393 152.385 104.726 153.05 105.356C153.716 105.986 154.048 106.827 154.048 107.877C154.048 109.138 153.567 110.144 152.604 110.897C151.658 111.632 150.372 112 148.743 112H141.915ZM145.119 103.491H148.297C148.945 103.491 149.452 103.343 149.82 103.045C150.188 102.73 150.372 102.301 150.372 101.758C150.372 101.215 150.188 100.795 149.82 100.498C149.452 100.182 148.945 100.025 148.297 100.025H145.119V103.491ZM145.119 109.531H148.56C149.277 109.531 149.838 109.365 150.24 109.032C150.643 108.682 150.844 108.201 150.844 107.588C150.844 106.975 150.643 106.503 150.24 106.17C149.838 105.82 149.277 105.645 148.56 105.645H145.119V109.531ZM159.523 116.727L161.572 111.212L156.004 97.5563H159.576L162.412 104.936C162.57 105.338 162.718 105.829 162.858 106.406C162.998 106.967 163.103 107.431 163.174 107.798C163.261 107.431 163.375 106.967 163.515 106.406C163.672 105.829 163.821 105.338 163.961 104.936L166.666 97.5563H170.08L162.963 116.727H159.523ZM172.456 112V97.5563H175.424V104.673C175.424 105.146 175.398 105.689 175.345 106.301C175.31 106.914 175.258 107.518 175.188 108.113C175.118 108.709 175.048 109.225 174.978 109.663L180.125 97.5563H184.169V112H181.201V104.883C181.201 104.411 181.219 103.885 181.254 103.308C181.306 102.73 181.359 102.161 181.412 101.601C181.482 101.04 181.543 100.568 181.595 100.182L176.501 112H172.456ZM178.313 95.2716C176.947 95.2716 175.835 94.9215 174.978 94.2212C174.137 93.5034 173.717 92.558 173.717 91.385H176.264C176.264 91.9627 176.448 92.4266 176.816 92.7768C177.201 93.1269 177.7 93.302 178.313 93.302C178.925 93.302 179.416 93.1269 179.783 92.7768C180.168 92.4266 180.361 91.9627 180.361 91.385H182.908C182.908 92.558 182.488 93.5034 181.648 94.2212C180.808 94.9215 179.696 95.2716 178.313 95.2716ZM208.932 112.263C207.707 112.263 206.63 112.035 205.702 111.58C204.792 111.107 204.083 110.451 203.575 109.61C203.067 108.752 202.814 107.746 202.814 106.59V102.966C202.814 101.811 203.067 100.813 203.575 99.9724C204.083 99.1145 204.792 98.458 205.702 98.0028C206.63 97.5301 207.707 97.2937 208.932 97.2937C210.753 97.2937 212.206 97.7664 213.292 98.7118C214.377 99.6397 214.946 100.909 214.999 102.52H211.795C211.742 101.767 211.454 101.189 210.928 100.786C210.421 100.366 209.755 100.156 208.932 100.156C208.057 100.156 207.366 100.401 206.858 100.892C206.35 101.364 206.096 102.047 206.096 102.94V106.59C206.096 107.483 206.35 108.175 206.858 108.665C207.366 109.155 208.057 109.4 208.932 109.4C209.773 109.4 210.447 109.199 210.955 108.796C211.462 108.376 211.742 107.789 211.795 107.037H214.999C214.946 108.647 214.377 109.925 213.292 110.871C212.206 111.799 210.753 112.263 208.932 112.263ZM224.15 112.263C222.925 112.263 221.857 112.026 220.947 111.554C220.036 111.081 219.327 110.424 218.819 109.584C218.329 108.726 218.084 107.728 218.084 106.59V102.966C218.084 101.828 218.329 100.839 218.819 99.9986C219.327 99.1408 220.036 98.4755 220.947 98.0028C221.857 97.5301 222.925 97.2937 224.15 97.2937C225.358 97.2937 226.409 97.5301 227.302 98.0028C228.212 98.4755 228.912 99.1408 229.403 99.9986C229.91 100.839 230.164 101.828 230.164 102.966V105.566H221.262V106.59C221.262 108.639 222.233 109.663 224.177 109.663C225.682 109.663 226.566 109.164 226.829 108.166H230.059C229.814 109.409 229.149 110.407 228.063 111.16C226.995 111.895 225.691 112.263 224.15 112.263ZM221.262 102.966V103.518L226.987 103.491V102.94C226.987 101.942 226.75 101.18 226.278 100.655C225.805 100.112 225.096 99.8411 224.15 99.8411C223.188 99.8411 222.461 100.112 221.971 100.655C221.498 101.198 221.262 101.968 221.262 102.966ZM239.447 112.263C237.591 112.245 236.121 111.729 235.035 110.713C233.95 109.68 233.407 108.288 233.407 106.538V100.051C233.407 97.7752 234.037 96.0069 235.298 94.7464C236.576 93.4683 238.353 92.8293 240.629 92.8293H244.699V96.0069H240.629C239.386 96.0069 238.405 96.3658 237.688 97.0836C236.97 97.7839 236.611 98.7731 236.611 100.051V101.732H236.663C236.769 100.856 237.162 100.165 237.845 99.6572C238.546 99.1495 239.465 98.8957 240.603 98.8957C242.126 98.8957 243.316 99.3946 244.174 100.393C245.05 101.39 245.487 102.756 245.487 104.489V106.538C245.487 107.711 245.233 108.735 244.726 109.61C244.235 110.468 243.535 111.133 242.625 111.606C241.732 112.061 240.673 112.28 239.447 112.263ZM239.447 109.4C240.305 109.4 240.979 109.146 241.469 108.639C241.959 108.131 242.205 107.431 242.205 106.538V104.489C242.205 103.596 241.959 102.905 241.469 102.415C240.979 101.907 240.305 101.653 239.447 101.653C238.589 101.653 237.915 101.907 237.425 102.415C236.935 102.905 236.69 103.596 236.69 104.489V106.538C236.69 107.431 236.935 108.131 237.425 108.639C237.915 109.146 238.589 109.4 239.447 109.4ZM248.284 112L251.593 106.721C250.63 106.424 249.868 105.89 249.308 105.12C248.765 104.349 248.494 103.448 248.494 102.415C248.494 100.909 249.001 99.7273 250.017 98.8694C251.032 97.994 252.424 97.5563 254.192 97.5563H260.521V112H257.239V107.01H254.901L252.013 112H248.284ZM254.324 104.489H257.239V100.235H254.324C253.536 100.235 252.914 100.428 252.459 100.813C252.004 101.198 251.776 101.723 251.776 102.388C251.776 103.036 252.004 103.553 252.459 103.938C252.914 104.305 253.536 104.489 254.324 104.489ZM283.552 112V100.498H278.615V97.5563H291.798V100.498H286.861V112H283.552ZM294.62 112V97.5563H301.081C302.674 97.5563 303.934 97.8977 304.862 98.5805C305.79 99.2458 306.254 100.139 306.254 101.259C306.254 102.135 305.965 102.844 305.387 103.386C304.827 103.912 304.066 104.183 303.103 104.2V104.358C304.206 104.393 305.09 104.726 305.755 105.356C306.42 105.986 306.753 106.827 306.753 107.877C306.753 109.138 306.272 110.144 305.309 110.897C304.363 111.632 303.076 112 301.448 112H294.62ZM297.824 103.491H301.002C301.65 103.491 302.157 103.343 302.525 103.045C302.893 102.73 303.076 102.301 303.076 101.758C303.076 101.215 302.893 100.795 302.525 100.498C302.157 100.182 301.65 100.025 301.002 100.025H297.824V103.491ZM297.824 109.531H301.264C301.982 109.531 302.542 109.365 302.945 109.032C303.348 108.682 303.549 108.201 303.549 107.588C303.549 106.975 303.348 106.503 302.945 106.17C302.542 105.82 301.982 105.645 301.264 105.645H297.824V109.531ZM315.747 112.236C313.891 112.236 312.421 111.729 311.335 110.713C310.25 109.68 309.707 108.297 309.707 106.564V102.992C309.707 101.259 310.25 99.8848 311.335 98.8694C312.421 97.8365 313.891 97.32 315.747 97.32C317.603 97.32 319.073 97.8365 320.159 98.8694C321.244 99.8848 321.787 101.25 321.787 102.966V106.564C321.787 108.297 321.244 109.68 320.159 110.713C319.073 111.729 317.603 112.236 315.747 112.236ZM315.747 109.374C316.622 109.374 317.296 109.138 317.769 108.665C318.259 108.175 318.504 107.474 318.504 106.564V102.992C318.504 102.082 318.259 101.39 317.769 100.918C317.296 100.428 316.622 100.182 315.747 100.182C314.872 100.182 314.189 100.428 313.699 100.918C313.226 101.39 312.99 102.082 312.99 102.992V106.564C312.99 107.474 313.226 108.175 313.699 108.665C314.189 109.138 314.872 109.374 315.747 109.374ZM325.161 116.727V97.5563H328.365V100.156H328.418C328.68 99.2458 329.144 98.5455 329.81 98.0553C330.492 97.5476 331.333 97.2937 332.331 97.2937C333.749 97.2937 334.887 97.7927 335.745 98.7906C336.62 99.7885 337.058 101.128 337.058 102.809V106.721C337.058 108.42 336.62 109.768 335.745 110.766C334.887 111.764 333.749 112.263 332.331 112.263C331.35 112.263 330.519 112.018 329.836 111.527C329.153 111.02 328.68 110.311 328.418 109.4H328.365L328.444 112.683V116.727H325.161ZM331.123 109.426C331.963 109.426 332.611 109.181 333.066 108.691C333.539 108.201 333.775 107.501 333.775 106.59V102.966C333.775 102.056 333.539 101.355 333.066 100.865C332.611 100.375 331.963 100.13 331.123 100.13C330.282 100.13 329.626 100.384 329.153 100.892C328.68 101.399 328.444 102.117 328.444 103.045V106.511C328.444 107.439 328.68 108.157 329.153 108.665C329.626 109.173 330.282 109.426 331.123 109.426ZM350.437 115.677V112H340.432V97.5563H343.714V108.98H348.205V97.5563H351.488V108.98H353.457V115.677H350.437ZM361.558 112.236C359.703 112.236 358.232 111.729 357.147 110.713C356.061 109.68 355.518 108.297 355.518 106.564V102.992C355.518 101.259 356.061 99.8848 357.147 98.8694C358.232 97.8365 359.703 97.32 361.558 97.32C363.414 97.32 364.885 97.8365 365.97 98.8694C367.056 99.8848 367.599 101.25 367.599 102.966V106.564C367.599 108.297 367.056 109.68 365.97 110.713C364.885 111.729 363.414 112.236 361.558 112.236ZM361.558 109.374C362.434 109.374 363.108 109.138 363.581 108.665C364.071 108.175 364.316 107.474 364.316 106.564V102.992C364.316 102.082 364.071 101.39 363.581 100.918C363.108 100.428 362.434 100.182 361.558 100.182C360.683 100.182 360 100.428 359.51 100.918C359.037 101.39 358.801 102.082 358.801 102.992V106.564C358.801 107.474 359.037 108.175 359.51 108.665C360 109.138 360.683 109.374 361.558 109.374ZM370.421 112V97.5563H374.36L376.146 102.992C376.339 103.588 376.496 104.148 376.619 104.673C376.741 105.198 376.829 105.592 376.882 105.855C376.917 105.592 376.995 105.198 377.118 104.673C377.24 104.148 377.398 103.588 377.591 102.992L379.298 97.5563H383.237V112H380.19V109.531C380.19 108.866 380.199 108.113 380.217 107.273C380.252 106.433 380.287 105.566 380.322 104.673C380.374 103.78 380.418 102.931 380.453 102.126C380.506 101.303 380.549 100.594 380.584 99.9986L378.326 107.824H375.385L373.047 100.051C373.082 100.611 373.126 101.285 373.179 102.073C373.231 102.844 373.275 103.675 373.31 104.568C373.363 105.443 373.398 106.31 373.415 107.168C373.45 108.026 373.468 108.814 373.468 109.531V112H370.421ZM40.9571 142.263C39.7316 142.263 38.6549 142.035 37.727 141.58C36.8166 141.107 36.1076 140.451 35.5999 139.61C35.0921 138.752 34.8383 137.746 34.8383 136.59V132.966C34.8383 131.811 35.0921 130.813 35.5999 129.972C36.1076 129.115 36.8166 128.458 37.727 128.003C38.6549 127.53 39.7316 127.294 40.9571 127.294C42.7779 127.294 44.231 127.766 45.3165 128.712C46.402 129.64 46.971 130.909 47.0235 132.52H43.8196C43.7671 131.767 43.4782 131.189 42.953 130.786C42.4453 130.366 41.78 130.156 40.9571 130.156C40.0818 130.156 39.3902 130.401 38.8825 130.892C38.3748 131.364 38.1209 132.047 38.1209 132.94V136.59C38.1209 137.483 38.3748 138.175 38.8825 138.665C39.3902 139.155 40.0818 139.4 40.9571 139.4C41.7975 139.4 42.4715 139.199 42.9793 138.796C43.487 138.376 43.7671 137.789 43.8196 137.037H47.0235C46.971 138.647 46.402 139.925 45.3165 140.871C44.231 141.799 42.7779 142.263 40.9571 142.263ZM56.1488 142.236C54.2931 142.236 52.8224 141.729 51.737 140.713C50.6515 139.68 50.1088 138.297 50.1088 136.564V132.992C50.1088 131.259 50.6515 129.885 51.737 128.869C52.8224 127.836 54.2931 127.32 56.1488 127.32C58.0046 127.32 59.4753 127.836 60.5607 128.869C61.6462 129.885 62.1889 131.25 62.1889 132.966V136.564C62.1889 138.297 61.6462 139.68 60.5607 140.713C59.4753 141.729 58.0046 142.236 56.1488 142.236ZM56.1488 139.374C57.0242 139.374 57.6983 139.138 58.171 138.665C58.6612 138.175 58.9063 137.474 58.9063 136.564V132.992C58.9063 132.082 58.6612 131.39 58.171 130.918C57.6983 130.428 57.0242 130.182 56.1488 130.182C55.2735 130.182 54.5907 130.428 54.1005 130.918C53.6278 131.39 53.3914 132.082 53.3914 132.992V136.564C53.3914 137.474 53.6278 138.175 54.1005 138.665C54.5907 139.138 55.2735 139.374 56.1488 139.374ZM65.5631 142V127.556H72.0233C73.6165 127.556 74.8771 127.898 75.8049 128.581C76.7328 129.246 77.1968 130.139 77.1968 131.259C77.1968 132.135 76.9079 132.844 76.3302 133.386C75.7699 133.912 75.0084 134.183 74.0454 134.2V134.358C75.1484 134.393 76.0325 134.726 76.6978 135.356C77.3631 135.986 77.6958 136.827 77.6958 137.877C77.6958 139.138 77.2143 140.144 76.2514 140.897C75.306 141.632 74.0192 142 72.391 142H65.5631ZM68.7669 133.491H71.9446C72.5923 133.491 73.1 133.343 73.4677 133.045C73.8354 132.73 74.0192 132.301 74.0192 131.758C74.0192 131.215 73.8354 130.795 73.4677 130.498C73.1 130.182 72.5923 130.025 71.9446 130.025H68.7669V133.491ZM68.7669 139.531H72.2072C72.925 139.531 73.4852 139.365 73.8879 139.032C74.2906 138.682 74.4919 138.201 74.4919 137.588C74.4919 136.975 74.2906 136.503 73.8879 136.17C73.4852 135.82 72.925 135.645 72.2072 135.645H68.7669V139.531ZM80.8336 142V127.556H92.5461V142H89.2634V130.55H84.1162V142H80.8336ZM100.358 142.263C98.8702 142.263 97.6972 141.877 96.8394 141.107C95.9815 140.319 95.5526 139.251 95.5526 137.903C95.5526 136.485 96.0428 135.391 97.0232 134.621C98.0036 133.833 99.3692 133.439 101.12 133.439H104.586V132.231C104.586 131.531 104.35 130.988 103.877 130.603C103.422 130.217 102.783 130.025 101.96 130.025C101.19 130.025 100.568 130.191 100.096 130.524C99.623 130.856 99.3692 131.268 99.3342 131.758H96.2091C96.2791 130.41 96.8481 129.333 97.9161 128.528C99.0015 127.705 100.393 127.294 102.092 127.294C103.877 127.294 105.287 127.731 106.32 128.607C107.353 129.482 107.869 130.681 107.869 132.205V142H104.691V139.558H104.639C104.446 140.398 103.974 141.063 103.221 141.554C102.468 142.026 101.514 142.263 100.358 142.263ZM101.435 139.82C102.363 139.82 103.116 139.593 103.694 139.138C104.289 138.665 104.586 138.043 104.586 137.273V135.54H101.199C100.463 135.54 99.8857 135.732 99.4655 136.117C99.0453 136.485 98.8352 136.993 98.8352 137.641C98.8352 138.323 99.0628 138.857 99.518 139.243C99.9907 139.628 100.63 139.82 101.435 139.82ZM110.009 145.677V139.216H110.981C111.278 138.919 111.585 138.367 111.9 137.562C112.232 136.757 112.407 135.767 112.425 134.594L112.583 127.556H122.693V139.216H124.4V145.677H121.38V142H113.029V145.677H110.009ZM114.316 139.216H119.568V130.419H115.629L115.524 134.594C115.506 135.767 115.357 136.757 115.077 137.562C114.815 138.367 114.561 138.919 114.316 139.216ZM132.528 142.263C131.302 142.263 130.234 142.026 129.324 141.554C128.413 141.081 127.704 140.424 127.196 139.584C126.706 138.726 126.461 137.728 126.461 136.59V132.966C126.461 131.828 126.706 130.839 127.196 129.999C127.704 129.141 128.413 128.475 129.324 128.003C130.234 127.53 131.302 127.294 132.528 127.294C133.736 127.294 134.786 127.53 135.679 128.003C136.589 128.475 137.29 129.141 137.78 129.999C138.287 130.839 138.541 131.828 138.541 132.966V135.566H129.639V136.59C129.639 138.639 130.61 139.663 132.554 139.663C134.059 139.663 134.944 139.164 135.206 138.166H138.436C138.191 139.409 137.526 140.407 136.44 141.16C135.372 141.895 134.068 142.263 132.528 142.263ZM129.639 132.966V133.518L135.364 133.491V132.94C135.364 131.942 135.127 131.18 134.655 130.655C134.182 130.112 133.473 129.841 132.528 129.841C131.565 129.841 130.838 130.112 130.348 130.655C129.875 131.198 129.639 131.968 129.639 132.966ZM141.915 142V127.556H145.198V133.124H150.345V127.556H153.628V142H150.345V136.091H145.198V142H141.915ZM157.186 142V127.556H160.153V134.673C160.153 135.146 160.127 135.689 160.075 136.301C160.04 136.914 159.987 137.518 159.917 138.113C159.847 138.709 159.777 139.225 159.707 139.663L164.854 127.556H168.898V142H165.931V134.883C165.931 134.411 165.948 133.885 165.983 133.308C166.036 132.73 166.089 132.161 166.141 131.601C166.211 131.04 166.272 130.568 166.325 130.182L161.23 142H157.186ZM172.456 142V127.556H175.424V134.673C175.424 135.146 175.398 135.689 175.345 136.301C175.31 136.914 175.258 137.518 175.188 138.113C175.118 138.709 175.048 139.225 174.978 139.663L180.125 127.556H184.169V142H181.201V134.883C181.201 134.411 181.219 133.885 181.254 133.308C181.306 132.73 181.359 132.161 181.412 131.601C181.482 131.04 181.543 130.568 181.595 130.182L176.501 142H172.456ZM178.313 125.272C176.947 125.272 175.835 124.921 174.978 124.221C174.137 123.503 173.717 122.558 173.717 121.385H176.264C176.264 121.963 176.448 122.427 176.816 122.777C177.201 123.127 177.7 123.302 178.313 123.302C178.925 123.302 179.416 123.127 179.783 122.777C180.168 122.427 180.361 121.963 180.361 121.385H182.908C182.908 122.558 182.488 123.503 181.648 124.221C180.808 124.921 179.696 125.272 178.313 125.272ZM200.975 134.857V131.811H216.732V134.857H200.975ZM239.473 142.263C238.248 142.263 237.171 142.035 236.243 141.58C235.333 141.107 234.624 140.451 234.116 139.61C233.608 138.752 233.355 137.746 233.355 136.59V132.966C233.355 131.811 233.608 130.813 234.116 129.972C234.624 129.115 235.333 128.458 236.243 128.003C237.171 127.53 238.248 127.294 239.473 127.294C241.294 127.294 242.747 127.766 243.833 128.712C244.918 129.64 245.487 130.909 245.54 132.52H242.336C242.283 131.767 241.994 131.189 241.469 130.786C240.962 130.366 240.296 130.156 239.473 130.156C238.598 130.156 237.906 130.401 237.399 130.892C236.891 131.364 236.637 132.047 236.637 132.94V136.59C236.637 137.483 236.891 138.175 237.399 138.665C237.906 139.155 238.598 139.4 239.473 139.4C240.314 139.4 240.988 139.199 241.496 138.796C242.003 138.376 242.283 137.789 242.336 137.037H245.54C245.487 138.647 244.918 139.925 243.833 140.871C242.747 141.799 241.294 142.263 239.473 142.263ZM254.665 142.236C252.809 142.236 251.339 141.729 250.253 140.713C249.168 139.68 248.625 138.297 248.625 136.564V132.992C248.625 131.259 249.168 129.885 250.253 128.869C251.339 127.836 252.809 127.32 254.665 127.32C256.521 127.32 257.992 127.836 259.077 128.869C260.162 129.885 260.705 131.25 260.705 132.966V136.564C260.705 138.297 260.162 139.68 259.077 140.713C257.992 141.729 256.521 142.236 254.665 142.236ZM254.665 139.374C255.54 139.374 256.215 139.138 256.687 138.665C257.177 138.175 257.423 137.474 257.423 136.564V132.992C257.423 132.082 257.177 131.39 256.687 130.918C256.215 130.428 255.54 130.182 254.665 130.182C253.79 130.182 253.107 130.428 252.617 130.918C252.144 131.39 251.908 132.082 251.908 132.992V136.564C251.908 137.474 252.144 138.175 252.617 138.665C253.107 139.138 253.79 139.374 254.665 139.374ZM269.988 142.263C268.132 142.245 266.662 141.729 265.576 140.713C264.491 139.68 263.948 138.288 263.948 136.538V130.051C263.948 127.775 264.578 126.007 265.839 124.746C267.117 123.468 268.894 122.829 271.17 122.829H275.24V126.007H271.17C269.927 126.007 268.946 126.366 268.229 127.084C267.511 127.784 267.152 128.773 267.152 130.051V131.732H267.204C267.309 130.856 267.703 130.165 268.386 129.657C269.086 129.15 270.006 128.896 271.144 128.896C272.667 128.896 273.857 129.395 274.715 130.393C275.591 131.39 276.028 132.756 276.028 134.489V136.538C276.028 137.711 275.774 138.735 275.267 139.61C274.776 140.468 274.076 141.133 273.166 141.606C272.273 142.061 271.214 142.28 269.988 142.263ZM269.988 139.4C270.846 139.4 271.52 139.146 272.01 138.639C272.5 138.131 272.746 137.431 272.746 136.538V134.489C272.746 133.596 272.5 132.905 272.01 132.415C271.52 131.907 270.846 131.653 269.988 131.653C269.13 131.653 268.456 131.907 267.966 132.415C267.476 132.905 267.231 133.596 267.231 134.489V136.538C267.231 137.431 267.476 138.131 267.966 138.639C268.456 139.146 269.13 139.4 269.988 139.4ZM285.232 142.263C284.007 142.263 282.939 142.026 282.028 141.554C281.118 141.081 280.409 140.424 279.901 139.584C279.411 138.726 279.166 137.728 279.166 136.59V132.966C279.166 131.828 279.411 130.839 279.901 129.999C280.409 129.141 281.118 128.475 282.028 128.003C282.939 127.53 284.007 127.294 285.232 127.294C286.44 127.294 287.491 127.53 288.384 128.003C289.294 128.475 289.994 129.141 290.485 129.999C290.992 130.839 291.246 131.828 291.246 132.966V135.566H282.344V136.59C282.344 138.639 283.315 139.663 285.259 139.663C286.764 139.663 287.648 139.164 287.911 138.166H291.141C290.896 139.409 290.231 140.407 289.145 141.16C288.077 141.895 286.773 142.263 285.232 142.263ZM282.344 132.966V133.518L288.069 133.491V132.94C288.069 131.942 287.832 131.18 287.359 130.655C286.887 130.112 286.178 129.841 285.232 129.841C284.269 129.841 283.543 130.112 283.053 130.655C282.58 131.198 282.344 131.968 282.344 132.966ZM294.62 146.727V127.556H297.824V130.156H297.877C298.139 129.246 298.603 128.546 299.269 128.055C299.951 127.548 300.792 127.294 301.79 127.294C303.208 127.294 304.346 127.793 305.204 128.791C306.079 129.789 306.517 131.128 306.517 132.809V136.721C306.517 138.42 306.079 139.768 305.204 140.766C304.346 141.764 303.208 142.263 301.79 142.263C300.809 142.263 299.978 142.018 299.295 141.527C298.612 141.02 298.139 140.311 297.877 139.4H297.824L297.903 142.683V146.727H294.62ZM300.582 139.426C301.422 139.426 302.07 139.181 302.525 138.691C302.998 138.201 303.234 137.501 303.234 136.59V132.966C303.234 132.056 302.998 131.355 302.525 130.865C302.07 130.375 301.422 130.13 300.582 130.13C299.741 130.13 299.085 130.384 298.612 130.892C298.139 131.399 297.903 132.117 297.903 133.045V136.511C297.903 137.439 298.139 138.157 298.612 138.665C299.085 139.173 299.741 139.426 300.582 139.426ZM309.891 142V127.556H312.858V134.673C312.858 135.146 312.832 135.689 312.78 136.301C312.745 136.914 312.692 137.518 312.622 138.113C312.552 138.709 312.482 139.225 312.412 139.663L317.559 127.556H321.603V142H318.636V134.883C318.636 134.411 318.653 133.885 318.688 133.308C318.741 132.73 318.793 132.161 318.846 131.601C318.916 131.04 318.977 130.568 319.03 130.182L313.935 142H309.891ZM37.3594 176.727L39.4077 171.212L33.8404 157.556H37.4119L40.2481 164.936C40.4057 165.338 40.5545 165.829 40.6945 166.406C40.8346 166.967 40.9396 167.431 41.0097 167.798C41.0972 167.431 41.211 166.967 41.3511 166.406C41.5086 165.829 41.6574 165.338 41.7975 164.936L44.5024 157.556H47.9164L40.7996 176.727H37.3594ZM50.2926 172V157.556H53.5752V163.124H58.7224V157.556H62.0051V172H58.7224V166.091H53.5752V172H50.2926ZM65.5631 172V157.556H68.5306V164.673C68.5306 165.146 68.5043 165.689 68.4518 166.301C68.4168 166.914 68.3643 167.518 68.2942 168.113C68.2242 168.709 68.1542 169.225 68.0842 169.663L73.2314 157.556H77.2756V172H74.3081V164.883C74.3081 164.411 74.3256 163.885 74.3606 163.308C74.4131 162.73 74.4656 162.161 74.5181 161.601C74.5882 161.04 74.6495 160.568 74.702 160.182L69.6073 172H65.5631ZM80.9123 172V157.556H84.195V163.229H86.4797L89.9987 157.556H93.6753L89.3159 164.542L93.7541 172H89.9987L86.4797 166.012H84.195V172H80.9123ZM100.358 172.263C98.8702 172.263 97.6972 171.877 96.8394 171.107C95.9815 170.319 95.5526 169.251 95.5526 167.903C95.5526 166.485 96.0428 165.391 97.0232 164.621C98.0036 163.833 99.3692 163.439 101.12 163.439H104.586V162.231C104.586 161.531 104.35 160.988 103.877 160.603C103.422 160.217 102.783 160.025 101.96 160.025C101.19 160.025 100.568 160.191 100.096 160.524C99.623 160.856 99.3692 161.268 99.3342 161.758H96.2091C96.2791 160.41 96.8481 159.333 97.9161 158.528C99.0015 157.705 100.393 157.294 102.092 157.294C103.877 157.294 105.287 157.731 106.32 158.607C107.353 159.482 107.869 160.681 107.869 162.205V172H104.691V169.558H104.639C104.446 170.398 103.974 171.063 103.221 171.554C102.468 172.026 101.514 172.263 100.358 172.263ZM101.435 169.82C102.363 169.82 103.116 169.593 103.694 169.138C104.289 168.665 104.586 168.043 104.586 167.273V165.54H101.199C100.463 165.54 99.8857 165.732 99.4655 166.117C99.0453 166.485 98.8352 166.993 98.8352 167.641C98.8352 168.323 99.0628 168.857 99.518 169.243C99.9907 169.628 100.63 169.82 101.435 169.82ZM109.956 172.184V169.19H110.613C111.208 169.19 111.655 168.954 111.952 168.481C112.267 167.991 112.434 167.22 112.451 166.17L112.609 157.556H123.087V172H119.804V160.55H115.839L115.734 166.354C115.699 168.262 115.252 169.715 114.395 170.713C113.554 171.694 112.364 172.184 110.823 172.184H109.956ZM126.776 172V157.556H130.059V162.283H133.657C135.407 162.283 136.773 162.721 137.753 163.596C138.751 164.454 139.25 165.645 139.25 167.168C139.25 168.656 138.751 169.838 137.753 170.713C136.756 171.571 135.399 172 133.683 172H126.776ZM130.059 169.111H133.525C134.296 169.111 134.882 168.945 135.285 168.612C135.705 168.262 135.915 167.772 135.915 167.142C135.915 166.511 135.705 166.03 135.285 165.697C134.882 165.347 134.296 165.172 133.525 165.172H130.059V169.111ZM141.915 172V157.556H145.198V163.124H150.345V157.556H153.628V172H150.345V166.091H145.198V172H141.915ZM156.477 172V157.556H159.313V162.441H160.285C161.825 162.441 163.051 162.879 163.961 163.754C164.889 164.629 165.353 165.802 165.353 167.273C165.353 168.709 164.889 169.855 163.961 170.713C163.051 171.571 161.825 172 160.285 172H156.477ZM166.771 172V157.556H169.608V172H166.771ZM159.313 169.531H160.285C161.02 169.531 161.598 169.33 162.018 168.927C162.438 168.525 162.648 167.973 162.648 167.273C162.648 166.538 162.438 165.96 162.018 165.54C161.598 165.12 161.02 164.909 160.285 164.909H159.313V169.531ZM172.456 172V157.556H175.424V164.673C175.424 165.146 175.398 165.689 175.345 166.301C175.31 166.914 175.258 167.518 175.188 168.113C175.118 168.709 175.048 169.225 174.978 169.663L180.125 157.556H184.169V172H181.201V164.883C181.201 164.411 181.219 163.885 181.254 163.308C181.306 162.73 181.359 162.161 181.412 161.601C181.482 161.04 181.543 160.568 181.595 160.182L176.501 172H172.456ZM178.313 155.272C176.947 155.272 175.835 154.921 174.978 154.221C174.137 153.503 173.717 152.558 173.717 151.385H176.264C176.264 151.963 176.448 152.427 176.816 152.777C177.201 153.127 177.7 153.302 178.313 153.302C178.925 153.302 179.416 153.127 179.783 152.777C180.168 152.427 180.361 151.963 180.361 151.385H182.908C182.908 152.558 182.488 153.503 181.648 154.221C180.808 154.921 179.696 155.272 178.313 155.272ZM202.997 172V157.556H209.458C211.051 157.556 212.311 157.898 213.239 158.581C214.167 159.246 214.631 160.139 214.631 161.259C214.631 162.135 214.342 162.844 213.765 163.386C213.204 163.912 212.443 164.183 211.48 164.2V164.358C212.583 164.393 213.467 164.726 214.132 165.356C214.797 165.986 215.13 166.827 215.13 167.877C215.13 169.138 214.649 170.144 213.686 170.897C212.74 171.632 211.454 172 209.825 172H202.997ZM206.201 163.491H209.379C210.027 163.491 210.534 163.343 210.902 163.045C211.27 162.73 211.454 162.301 211.454 161.758C211.454 161.215 211.27 160.795 210.902 160.498C210.534 160.182 210.027 160.025 209.379 160.025H206.201V163.491ZM206.201 169.531H209.642C210.359 169.531 210.92 169.365 211.322 169.032C211.725 168.682 211.926 168.201 211.926 167.588C211.926 166.975 211.725 166.503 211.322 166.17C210.92 165.82 210.359 165.645 209.642 165.645H206.201V169.531ZM218.268 172V157.556H221.235V164.673C221.235 165.146 221.209 165.689 221.157 166.301C221.122 166.914 221.069 167.518 220.999 168.113C220.929 168.709 220.859 169.225 220.789 169.663L225.936 157.556H229.98V172H227.013V164.883C227.013 164.411 227.03 163.885 227.065 163.308C227.118 162.73 227.17 162.161 227.223 161.601C227.293 161.04 227.354 160.568 227.407 160.182L222.312 172H218.268ZM237.74 172V160.498H232.803V157.556H245.986V160.498H241.049V172H237.74ZM248.809 176.727V157.556H252.013V160.156H252.065C252.328 159.246 252.792 158.546 253.457 158.055C254.14 157.548 254.98 157.294 255.978 157.294C257.396 157.294 258.534 157.793 259.392 158.791C260.268 159.789 260.705 161.128 260.705 162.809V166.721C260.705 168.42 260.268 169.768 259.392 170.766C258.534 171.764 257.396 172.263 255.978 172.263C254.998 172.263 254.166 172.018 253.483 171.527C252.801 171.02 252.328 170.311 252.065 169.4H252.013L252.092 172.683V176.727H248.809ZM254.77 169.426C255.611 169.426 256.258 169.181 256.713 168.691C257.186 168.201 257.423 167.501 257.423 166.59V162.966C257.423 162.056 257.186 161.355 256.713 160.865C256.258 160.375 255.611 160.13 254.77 160.13C253.93 160.13 253.273 160.384 252.801 160.892C252.328 161.399 252.092 162.117 252.092 163.045V166.511C252.092 167.439 252.328 168.157 252.801 168.665C253.273 169.173 253.93 169.426 254.77 169.426ZM268.334 172.263C266.846 172.263 265.673 171.877 264.815 171.107C263.957 170.319 263.528 169.251 263.528 167.903C263.528 166.485 264.018 165.391 264.998 164.621C265.979 163.833 267.344 163.439 269.095 163.439H272.562V162.231C272.562 161.531 272.325 160.988 271.853 160.603C271.397 160.217 270.758 160.025 269.936 160.025C269.165 160.025 268.544 160.191 268.071 160.524C267.598 160.856 267.344 161.268 267.309 161.758H264.184C264.254 160.41 264.823 159.333 265.891 158.528C266.977 157.705 268.369 157.294 270.067 157.294C271.853 157.294 273.262 157.731 274.295 158.607C275.328 159.482 275.844 160.681 275.844 162.205V172H272.667V169.558H272.614C272.422 170.398 271.949 171.063 271.196 171.554C270.443 172.026 269.489 172.263 268.334 172.263ZM269.41 169.82C270.338 169.82 271.091 169.593 271.669 169.138C272.264 168.665 272.562 168.043 272.562 167.273V165.54H269.174C268.439 165.54 267.861 165.732 267.441 166.117C267.021 166.485 266.811 166.993 266.811 167.641C266.811 168.323 267.038 168.857 267.493 169.243C267.966 169.628 268.605 169.82 269.41 169.82ZM277.564 172L280.479 164.594L277.774 157.556H280.715L283.026 163.938H283.998V157.556H286.414V163.938H287.386L289.828 157.556H292.638L289.933 164.516L292.848 172H289.933L287.412 165.356H286.414V172H283.998V165.356H282.974L280.584 172H277.564ZM297.588 176.202L298.98 168.035H302.709L300.713 176.202H297.588ZM35.0221 202V187.556H46.7346V202H43.452V190.55H38.3048V202H35.0221ZM56.1751 202.263C54.9496 202.263 53.8816 202.026 52.9712 201.554C52.0608 201.081 51.3518 200.424 50.8441 199.584C50.3539 198.726 50.1088 197.728 50.1088 196.59V192.966C50.1088 191.828 50.3539 190.839 50.8441 189.999C51.3518 189.141 52.0608 188.475 52.9712 188.003C53.8816 187.53 54.9496 187.294 56.1751 187.294C57.3831 187.294 58.4336 187.53 59.3265 188.003C60.2368 188.475 60.9371 189.141 61.4273 189.999C61.9351 190.839 62.1889 191.828 62.1889 192.966V195.566H53.2864V196.59C53.2864 198.639 54.258 199.663 56.2014 199.663C57.707 199.663 58.5911 199.164 58.8537 198.166H62.0839C61.8388 199.409 61.1735 200.407 60.088 201.16C59.0201 201.895 57.7158 202.263 56.1751 202.263ZM53.2864 192.966V193.518L59.0113 193.491V192.94C59.0113 191.942 58.775 191.18 58.3023 190.655C57.8296 190.112 57.1205 189.841 56.1751 189.841C55.2122 189.841 54.4856 190.112 53.9954 190.655C53.5227 191.198 53.2864 191.968 53.2864 192.966ZM65.5631 206.727V187.556H68.7669V190.156H68.8195C69.0821 189.246 69.546 188.546 70.2113 188.055C70.8941 187.548 71.7345 187.294 72.7324 187.294C74.1505 187.294 75.2885 187.793 76.1463 188.791C77.0217 189.789 77.4594 191.128 77.4594 192.809V196.721C77.4594 198.42 77.0217 199.768 76.1463 200.766C75.2885 201.764 74.1505 202.263 72.7324 202.263C71.752 202.263 70.9204 202.018 70.2376 201.527C69.5548 201.02 69.0821 200.311 68.8195 199.4H68.7669L68.8457 202.683V206.727H65.5631ZM71.5244 199.426C72.3647 199.426 73.0125 199.181 73.4677 198.691C73.9404 198.201 74.1768 197.501 74.1768 196.59V192.966C74.1768 192.056 73.9404 191.355 73.4677 190.865C73.0125 190.375 72.3647 190.13 71.5244 190.13C70.684 190.13 70.0275 190.384 69.5548 190.892C69.0821 191.399 68.8457 192.117 68.8457 193.045V196.511C68.8457 197.439 69.0821 198.157 69.5548 198.665C70.0275 199.173 70.684 199.426 71.5244 199.426ZM86.7161 202.263C85.4905 202.263 84.4226 202.026 83.5122 201.554C82.6018 201.081 81.8928 200.424 81.385 199.584C80.8948 198.726 80.6497 197.728 80.6497 196.59V192.966C80.6497 191.828 80.8948 190.839 81.385 189.999C81.8928 189.141 82.6018 188.475 83.5122 188.003C84.4226 187.53 85.4905 187.294 86.7161 187.294C87.9241 187.294 88.9745 187.53 89.8674 188.003C90.7778 188.475 91.4781 189.141 91.9683 189.999C92.476 190.839 92.7299 191.828 92.7299 192.966V195.566H83.8273V196.59C83.8273 198.639 84.799 199.663 86.7423 199.663C88.248 199.663 89.1321 199.164 89.3947 198.166H92.6248C92.3797 199.409 91.7145 200.407 90.629 201.16C89.561 201.895 88.2567 202.263 86.7161 202.263ZM83.8273 192.966V193.518L89.5523 193.491V192.94C89.5523 191.942 89.3159 191.18 88.8432 190.655C88.3705 190.112 87.6615 189.841 86.7161 189.841C85.7532 189.841 85.0266 190.112 84.5364 190.655C84.0637 191.198 83.8273 191.968 83.8273 192.966ZM94.7385 205.677V199.216H95.7101C96.0078 198.919 96.3141 198.367 96.6293 197.562C96.9619 196.757 97.137 195.767 97.1545 194.594L97.3121 187.556H107.423V199.216H109.13V205.677H106.11V202H97.7585V205.677H94.7385ZM99.0453 199.216H104.298V190.419H100.358L100.253 194.594C100.236 195.767 100.087 196.757 99.8069 197.562C99.5443 198.367 99.2904 198.919 99.0453 199.216ZM111.375 202V187.556H117.835C119.428 187.556 120.688 187.898 121.616 188.581C122.544 189.246 123.008 190.139 123.008 191.259C123.008 192.135 122.719 192.844 122.142 193.386C121.581 193.912 120.82 194.183 119.857 194.2V194.358C120.96 194.393 121.844 194.726 122.509 195.356C123.175 195.986 123.507 196.827 123.507 197.877C123.507 199.138 123.026 200.144 122.063 200.897C121.117 201.632 119.831 202 118.202 202H111.375ZM114.578 193.491H117.756C118.404 193.491 118.911 193.343 119.279 193.045C119.647 192.73 119.831 192.301 119.831 191.758C119.831 191.215 119.647 190.795 119.279 190.498C118.911 190.182 118.404 190.025 117.756 190.025H114.578V193.491ZM114.578 199.531H118.019C118.736 199.531 119.297 199.365 119.699 199.032C120.102 198.682 120.303 198.201 120.303 197.588C120.303 196.975 120.102 196.503 119.699 196.17C119.297 195.82 118.736 195.645 118.019 195.645H114.578V199.531ZM126.645 202V187.556H129.613V194.673C129.613 195.146 129.586 195.689 129.534 196.301C129.499 196.914 129.446 197.518 129.376 198.113C129.306 198.709 129.236 199.225 129.166 199.663L134.313 187.556H138.358V202H135.39V194.883C135.39 194.411 135.407 193.885 135.443 193.308C135.495 192.73 135.548 192.161 135.6 191.601C135.67 191.04 135.731 190.568 135.784 190.182L130.689 202H126.645ZM143.071 202V187.556H153.838V190.603H146.354V202H143.071ZM161.44 202.263C159.952 202.263 158.779 201.877 157.921 201.107C157.063 200.319 156.634 199.251 156.634 197.903C156.634 196.485 157.125 195.391 158.105 194.621C159.086 193.833 160.451 193.439 162.202 193.439H165.668V192.231C165.668 191.531 165.432 190.988 164.959 190.603C164.504 190.217 163.865 190.025 163.042 190.025C162.272 190.025 161.65 190.191 161.178 190.524C160.705 190.856 160.451 191.268 160.416 191.758H157.291C157.361 190.41 157.93 189.333 158.998 188.528C160.083 187.705 161.475 187.294 163.174 187.294C164.959 187.294 166.369 187.731 167.402 188.607C168.435 189.482 168.951 190.681 168.951 192.205V202H165.773V199.558H165.721C165.528 200.398 165.056 201.063 164.303 201.554C163.55 202.026 162.596 202.263 161.44 202.263ZM162.517 199.82C163.445 199.82 164.198 199.593 164.775 199.138C165.371 198.665 165.668 198.043 165.668 197.273V195.54H162.281C161.545 195.54 160.968 195.732 160.547 196.117C160.127 196.485 159.917 196.993 159.917 197.641C159.917 198.323 160.145 198.857 160.6 199.243C161.073 199.628 161.712 199.82 162.517 199.82ZM171.931 202L175.24 196.721C174.277 196.424 173.516 195.89 172.955 195.12C172.413 194.349 172.141 193.448 172.141 192.415C172.141 190.909 172.649 189.727 173.664 188.869C174.68 187.994 176.072 187.556 177.84 187.556H184.169V202H180.886V197.01H178.549L175.66 202H171.931ZM177.971 194.489H180.886V190.235H177.971C177.183 190.235 176.562 190.428 176.107 190.813C175.652 191.198 175.424 191.723 175.424 192.388C175.424 193.036 175.652 193.553 176.107 193.938C176.562 194.305 177.183 194.489 177.971 194.489ZM211.27 202V197.168C211.007 197.238 210.613 197.299 210.088 197.352C209.58 197.387 209.029 197.404 208.433 197.404C206.455 197.404 204.985 197.002 204.022 196.196C203.076 195.373 202.604 194.104 202.604 192.388V187.556H205.886V192.231C205.886 193.001 206.114 193.561 206.569 193.912C207.042 194.262 207.786 194.437 208.801 194.437C209.326 194.437 209.817 194.419 210.272 194.384C210.744 194.349 211.077 194.305 211.27 194.253V187.556H214.579V202H211.27ZM222.522 202.263C221.034 202.263 219.861 201.877 219.003 201.107C218.145 200.319 217.716 199.251 217.716 197.903C217.716 196.485 218.207 195.391 219.187 194.621C220.167 193.833 221.533 193.439 223.284 193.439H226.75V192.231C226.75 191.531 226.514 190.988 226.041 190.603C225.586 190.217 224.947 190.025 224.124 190.025C223.354 190.025 222.732 190.191 222.26 190.524C221.787 190.856 221.533 191.268 221.498 191.758H218.373C218.443 190.41 219.012 189.333 220.08 188.528C221.165 187.705 222.557 187.294 224.255 187.294C226.041 187.294 227.451 187.731 228.484 188.607C229.516 189.482 230.033 190.681 230.033 192.205V202H226.855V199.558H226.803C226.61 200.398 226.138 201.063 225.385 201.554C224.632 202.026 223.678 202.263 222.522 202.263ZM223.599 199.82C224.527 199.82 225.28 199.593 225.857 199.138C226.453 198.665 226.75 198.043 226.75 197.273V195.54H223.363C222.627 195.54 222.05 195.732 221.629 196.117C221.209 196.485 220.999 196.993 220.999 197.641C220.999 198.323 221.227 198.857 221.682 199.243C222.155 199.628 222.794 199.82 223.599 199.82ZM239.473 202.263C238.248 202.263 237.171 202.035 236.243 201.58C235.333 201.107 234.624 200.451 234.116 199.61C233.608 198.752 233.355 197.746 233.355 196.59V192.966C233.355 191.811 233.608 190.813 234.116 189.972C234.624 189.115 235.333 188.458 236.243 188.003C237.171 187.53 238.248 187.294 239.473 187.294C241.294 187.294 242.747 187.766 243.833 188.712C244.918 189.64 245.487 190.909 245.54 192.52H242.336C242.283 191.767 241.994 191.189 241.469 190.786C240.962 190.366 240.296 190.156 239.473 190.156C238.598 190.156 237.906 190.401 237.399 190.892C236.891 191.364 236.637 192.047 236.637 192.94V196.59C236.637 197.483 236.891 198.175 237.399 198.665C237.906 199.155 238.598 199.4 239.473 199.4C240.314 199.4 240.988 199.199 241.496 198.796C242.003 198.376 242.283 197.789 242.336 197.037H245.54C245.487 198.647 244.918 199.925 243.833 200.871C242.747 201.799 241.294 202.263 239.473 202.263ZM253.011 202V190.498H248.074V187.556H261.257V190.498H256.32V202H253.011ZM264.079 202V187.556H267.047V194.673C267.047 195.146 267.021 195.689 266.968 196.301C266.933 196.914 266.881 197.518 266.811 198.113C266.74 198.709 266.67 199.225 266.6 199.663L271.748 187.556H275.792V202H272.824V194.883C272.824 194.411 272.842 193.885 272.877 193.308C272.929 192.73 272.982 192.161 273.034 191.601C273.104 191.04 273.166 190.568 273.218 190.182L268.124 202H264.079ZM294.62 202V187.556H306.333V202H303.05V190.55H297.903V202H294.62ZM315.747 202.236C313.891 202.236 312.421 201.729 311.335 200.713C310.25 199.68 309.707 198.297 309.707 196.564V192.992C309.707 191.259 310.25 189.885 311.335 188.869C312.421 187.836 313.891 187.32 315.747 187.32C317.603 187.32 319.073 187.836 320.159 188.869C321.244 189.885 321.787 191.25 321.787 192.966V196.564C321.787 198.297 321.244 199.68 320.159 200.713C319.073 201.729 317.603 202.236 315.747 202.236ZM315.747 199.374C316.622 199.374 317.296 199.138 317.769 198.665C318.259 198.175 318.504 197.474 318.504 196.564V192.992C318.504 192.082 318.259 191.39 317.769 190.918C317.296 190.428 316.622 190.182 315.747 190.182C314.872 190.182 314.189 190.428 313.699 190.918C313.226 191.39 312.99 192.082 312.99 192.992V196.564C312.99 197.474 313.226 198.175 313.699 198.665C314.189 199.138 314.872 199.374 315.747 199.374ZM323.743 202.184V199.19H324.4C324.995 199.19 325.441 198.954 325.739 198.481C326.054 197.991 326.22 197.22 326.238 196.17L326.396 187.556H336.874V202H333.591V190.55H329.626L329.521 196.354C329.486 198.262 329.039 199.715 328.181 200.713C327.341 201.694 326.15 202.184 324.61 202.184H323.743ZM346.288 202.236C344.432 202.236 342.962 201.729 341.876 200.713C340.791 199.68 340.248 198.297 340.248 196.564V192.992C340.248 191.259 340.791 189.885 341.876 188.869C342.962 187.836 344.432 187.32 346.288 187.32C348.144 187.32 349.614 187.836 350.7 188.869C351.785 189.885 352.328 191.25 352.328 192.966V196.564C352.328 198.297 351.785 199.68 350.7 200.713C349.614 201.729 348.144 202.236 346.288 202.236ZM346.288 199.374C347.163 199.374 347.837 199.138 348.31 198.665C348.8 198.175 349.045 197.474 349.045 196.564V192.992C349.045 192.082 348.8 191.39 348.31 190.918C347.837 190.428 347.163 190.182 346.288 190.182C345.413 190.182 344.73 190.428 344.24 190.918C343.767 191.39 343.531 192.082 343.531 192.992V196.564C343.531 197.474 343.767 198.175 344.24 198.665C344.73 199.138 345.413 199.374 346.288 199.374ZM359.904 202V190.498H354.967V187.556H368.15V190.498H363.213V202H359.904ZM370.973 202V187.556H374.255V193.124H379.403V187.556H382.685V202H379.403V196.091H374.255V202H370.973ZM390.498 202.263C389.009 202.263 387.836 201.877 386.979 201.107C386.121 200.319 385.692 199.251 385.692 197.903C385.692 196.485 386.182 195.391 387.162 194.621C388.143 193.833 389.508 193.439 391.259 193.439H394.726V192.231C394.726 191.531 394.489 190.988 394.017 190.603C393.561 190.217 392.922 190.025 392.099 190.025C391.329 190.025 390.708 190.191 390.235 190.524C389.762 190.856 389.508 191.268 389.473 191.758H386.348C386.418 190.41 386.987 189.333 388.055 188.528C389.141 187.705 390.533 187.294 392.231 187.294C394.017 187.294 395.426 187.731 396.459 188.607C397.492 189.482 398.008 190.681 398.008 192.205V202H394.831V199.558H394.778C394.586 200.398 394.113 201.063 393.36 201.554C392.607 202.026 391.653 202.263 390.498 202.263ZM391.574 199.82C392.502 199.82 393.255 199.593 393.833 199.138C394.428 198.665 394.726 198.043 394.726 197.273V195.54H391.338C390.603 195.54 390.025 195.732 389.605 196.117C389.184 196.485 388.974 196.993 388.974 197.641C388.974 198.323 389.202 198.857 389.657 199.243C390.13 199.628 390.769 199.82 391.574 199.82ZM35.0221 232V217.556H37.9896V224.673C37.9896 225.146 37.9634 225.689 37.9108 226.301C37.8758 226.914 37.8233 227.518 37.7533 228.113C37.6832 228.709 37.6132 229.225 37.5432 229.663L42.6904 217.556H46.7346V232H43.7671V224.883C43.7671 224.411 43.7846 223.885 43.8196 223.308C43.8721 222.73 43.9247 222.161 43.9772 221.601C44.0472 221.04 44.1085 220.568 44.161 220.182L39.0663 232H35.0221ZM65.0116 232V217.556H68.9508L70.7365 222.992C70.9291 223.588 71.0867 224.148 71.2092 224.673C71.3318 225.198 71.4193 225.592 71.4718 225.855C71.5069 225.592 71.5856 225.198 71.7082 224.673C71.8308 224.148 71.9883 223.588 72.1809 222.992L73.8879 217.556H77.8271V232H74.7808V229.531C74.7808 228.866 74.7895 228.113 74.807 227.273C74.842 226.433 74.8771 225.566 74.9121 224.673C74.9646 223.78 75.0084 222.931 75.0434 222.126C75.0959 221.303 75.1397 220.594 75.1747 219.999L72.9162 227.824H69.975L67.6377 220.051C67.6727 220.611 67.7165 221.285 67.769 222.073C67.8215 222.844 67.8653 223.675 67.9003 224.568C67.9528 225.443 67.9879 226.31 68.0054 227.168C68.0404 228.026 68.0579 228.814 68.0579 229.531V232H65.0116ZM86.7161 232.263C85.4905 232.263 84.4226 232.026 83.5122 231.554C82.6018 231.081 81.8928 230.424 81.385 229.584C80.8948 228.726 80.6497 227.728 80.6497 226.59V222.966C80.6497 221.828 80.8948 220.839 81.385 219.999C81.8928 219.141 82.6018 218.475 83.5122 218.003C84.4226 217.53 85.4905 217.294 86.7161 217.294C87.9241 217.294 88.9745 217.53 89.8674 218.003C90.7778 218.475 91.4781 219.141 91.9683 219.999C92.476 220.839 92.7299 221.828 92.7299 222.966V225.566H83.8273V226.59C83.8273 228.639 84.799 229.663 86.7423 229.663C88.248 229.663 89.1321 229.164 89.3947 228.166H92.6248C92.3797 229.409 91.7145 230.407 90.629 231.16C89.561 231.895 88.2567 232.263 86.7161 232.263ZM83.8273 222.966V223.518L89.5523 223.491V222.94C89.5523 221.942 89.3159 221.18 88.8432 220.655C88.3705 220.112 87.6615 219.841 86.7161 219.841C85.7532 219.841 85.0266 220.112 84.5364 220.655C84.0637 221.198 83.8273 221.968 83.8273 222.966ZM96.104 232V217.556H99.3867V223.124H104.534V217.556H107.817V232H104.534V226.091H99.3867V232H96.104ZM110.849 232L114.158 226.721C113.195 226.424 112.434 225.89 111.873 225.12C111.331 224.349 111.059 223.448 111.059 222.415C111.059 220.909 111.567 219.727 112.583 218.869C113.598 217.994 114.99 217.556 116.758 217.556H123.087V232H119.804V227.01H117.467L114.578 232H110.849ZM116.889 224.489H119.804V220.235H116.889C116.102 220.235 115.48 220.428 115.025 220.813C114.57 221.198 114.342 221.723 114.342 222.388C114.342 223.036 114.57 223.553 115.025 223.938C115.48 224.305 116.102 224.489 116.889 224.489ZM126.12 232L129.429 226.721C128.466 226.424 127.704 225.89 127.144 225.12C126.601 224.349 126.33 223.448 126.33 222.415C126.33 220.909 126.838 219.727 127.853 218.869C128.868 217.994 130.26 217.556 132.029 217.556H138.358V232H135.075V227.01H132.738L129.849 232H126.12ZM132.16 224.489H135.075V220.235H132.16C131.372 220.235 130.751 220.428 130.295 220.813C129.84 221.198 129.613 221.723 129.613 222.388C129.613 223.036 129.84 223.553 130.295 223.938C130.751 224.305 131.372 224.489 132.16 224.489ZM167.191 235.677V232H157.186V217.556H160.469V228.98H164.959V217.556H168.242V228.98H170.212V235.677H167.191ZM172.456 232V217.556H178.917C180.51 217.556 181.77 217.898 182.698 218.581C183.626 219.246 184.09 220.139 184.09 221.259C184.09 222.135 183.801 222.844 183.224 223.386C182.663 223.912 181.902 224.183 180.939 224.2V224.358C182.042 224.393 182.926 224.726 183.591 225.356C184.256 225.986 184.589 226.827 184.589 227.877C184.589 229.138 184.108 230.144 183.145 230.897C182.199 231.632 180.913 232 179.284 232H172.456ZM175.66 223.491H178.838C179.486 223.491 179.993 223.343 180.361 223.045C180.729 222.73 180.913 222.301 180.913 221.758C180.913 221.215 180.729 220.795 180.361 220.498C179.993 220.182 179.486 220.025 178.838 220.025H175.66V223.491ZM175.66 229.531H179.101C179.818 229.531 180.379 229.365 180.781 229.032C181.184 228.682 181.385 228.201 181.385 227.588C181.385 226.975 181.184 226.503 180.781 226.17C180.379 225.82 179.818 225.645 179.101 225.645H175.66V229.531ZM193.609 232.263C192.384 232.263 191.316 232.026 190.406 231.554C189.495 231.081 188.786 230.424 188.278 229.584C187.788 228.726 187.543 227.728 187.543 226.59V222.966C187.543 221.828 187.788 220.839 188.278 219.999C188.786 219.141 189.495 218.475 190.406 218.003C191.316 217.53 192.384 217.294 193.609 217.294C194.817 217.294 195.868 217.53 196.761 218.003C197.671 218.475 198.371 219.141 198.862 219.999C199.369 220.839 199.623 221.828 199.623 222.966V225.566H190.721V226.59C190.721 228.639 191.692 229.663 193.636 229.663C195.141 229.663 196.025 229.164 196.288 228.166H199.518C199.273 229.409 198.608 230.407 197.522 231.16C196.454 231.895 195.15 232.263 193.609 232.263ZM190.721 222.966V223.518L196.446 223.491V222.94C196.446 221.942 196.209 221.18 195.737 220.655C195.264 220.112 194.555 219.841 193.609 219.841C192.647 219.841 191.92 220.112 191.43 220.655C190.957 221.198 190.721 221.968 190.721 222.966ZM207.199 232V220.498H202.262V217.556H215.445V220.498H210.508V232H207.199ZM222.522 232.263C221.034 232.263 219.861 231.877 219.003 231.107C218.145 230.319 217.716 229.251 217.716 227.903C217.716 226.485 218.207 225.391 219.187 224.621C220.167 223.833 221.533 223.439 223.284 223.439H226.75V222.231C226.75 221.531 226.514 220.988 226.041 220.603C225.586 220.217 224.947 220.025 224.124 220.025C223.354 220.025 222.732 220.191 222.26 220.524C221.787 220.856 221.533 221.268 221.498 221.758H218.373C218.443 220.41 219.012 219.333 220.08 218.528C221.165 217.705 222.557 217.294 224.255 217.294C226.041 217.294 227.451 217.731 228.484 218.607C229.516 219.482 230.033 220.681 230.033 222.205V232H226.855V229.558H226.803C226.61 230.398 226.138 231.063 225.385 231.554C224.632 232.026 223.678 232.263 222.522 232.263ZM223.599 229.82C224.527 229.82 225.28 229.593 225.857 229.138C226.453 228.665 226.75 228.043 226.75 227.273V225.54H223.363C222.627 225.54 222.05 225.732 221.629 226.117C221.209 226.485 220.999 226.993 220.999 227.641C220.999 228.323 221.227 228.857 221.682 229.243C222.155 229.628 222.794 229.82 223.599 229.82ZM247.391 232.184V229.19H248.047C248.643 229.19 249.089 228.954 249.387 228.481C249.702 227.991 249.868 227.22 249.886 226.17L250.043 217.556H260.521V232H257.239V220.55H253.273L253.168 226.354C253.133 228.262 252.687 229.715 251.829 230.713C250.989 231.694 249.798 232.184 248.257 232.184H247.391ZM272.378 232.263C271.065 232.263 270.032 231.869 269.279 231.081C268.544 230.276 268.176 229.199 268.176 227.851V225.829H265.97V232H263.16V217.556H265.97V223.57H268.176V221.679C268.176 220.349 268.544 219.29 269.279 218.502C270.032 217.696 271.065 217.294 272.378 217.294C273.743 217.294 274.838 217.696 275.661 218.502C276.501 219.29 276.921 220.349 276.921 221.679V227.851C276.921 229.199 276.501 230.276 275.661 231.081C274.838 231.869 273.743 232.263 272.378 232.263ZM272.404 229.82C272.912 229.82 273.323 229.645 273.638 229.295C273.954 228.927 274.111 228.446 274.111 227.851V221.679C274.111 221.102 273.954 220.638 273.638 220.288C273.323 219.92 272.912 219.736 272.404 219.736C271.879 219.736 271.459 219.92 271.144 220.288C270.846 220.638 270.697 221.102 270.697 221.679V227.851C270.697 228.446 270.846 228.927 271.144 229.295C271.459 229.645 271.879 229.82 272.404 229.82ZM285.259 232.263C283.403 232.245 281.932 231.729 280.847 230.713C279.761 229.68 279.219 228.288 279.219 226.538V220.051C279.219 217.775 279.849 216.007 281.109 214.746C282.387 213.468 284.164 212.829 286.44 212.829H290.511V216.007H286.44C285.197 216.007 284.217 216.366 283.499 217.084C282.781 217.784 282.422 218.773 282.422 220.051V221.732H282.475C282.58 220.856 282.974 220.165 283.657 219.657C284.357 219.15 285.276 218.896 286.414 218.896C287.937 218.896 289.128 219.395 289.986 220.393C290.861 221.39 291.299 222.756 291.299 224.489V226.538C291.299 227.711 291.045 228.735 290.537 229.61C290.047 230.468 289.347 231.133 288.436 231.606C287.543 232.061 286.484 232.28 285.259 232.263ZM285.259 229.4C286.116 229.4 286.791 229.146 287.281 228.639C287.771 228.131 288.016 227.431 288.016 226.538V224.489C288.016 223.596 287.771 222.905 287.281 222.415C286.791 221.907 286.116 221.653 285.259 221.653C284.401 221.653 283.727 221.907 283.236 222.415C282.746 222.905 282.501 223.596 282.501 224.489V226.538C282.501 227.431 282.746 228.131 283.236 228.639C283.727 229.146 284.401 229.4 285.259 229.4ZM293.911 232V217.556H296.747V222.441H297.719C299.26 222.441 300.485 222.879 301.396 223.754C302.324 224.629 302.788 225.802 302.788 227.273C302.788 228.709 302.324 229.855 301.396 230.713C300.485 231.571 299.26 232 297.719 232H293.911ZM304.206 232V217.556H307.042V232H304.206ZM296.747 229.531H297.719C298.454 229.531 299.032 229.33 299.452 228.927C299.873 228.525 300.083 227.973 300.083 227.273C300.083 226.538 299.873 225.96 299.452 225.54C299.032 225.12 298.454 224.909 297.719 224.909H296.747V229.531ZM308.814 232L313.856 224.542L309.155 217.556H312.858L315.091 221.102C315.231 221.312 315.362 221.548 315.484 221.811C315.607 222.073 315.695 222.283 315.747 222.441C315.817 222.283 315.913 222.073 316.036 221.811C316.158 221.548 316.281 221.312 316.404 221.102L318.662 217.556H322.365L317.664 224.542L322.68 232H318.951L316.456 228.035C316.316 227.824 316.176 227.588 316.036 227.326C315.913 227.045 315.817 226.827 315.747 226.669C315.677 226.827 315.581 227.045 315.458 227.326C315.336 227.588 315.204 227.824 315.064 228.035L312.517 232H308.814ZM40.7996 262.263C38.9963 262.263 37.5519 261.799 36.4665 260.871C35.381 259.943 34.8033 258.682 34.7332 257.089H38.0422C38.0947 257.807 38.3573 258.376 38.83 258.796C39.3202 259.199 39.9767 259.4 40.7996 259.4C41.6925 259.4 42.384 259.164 42.8742 258.691C43.3819 258.201 43.6358 257.509 43.6358 256.616V256.012H39.2502V253.386H43.6358V252.966C43.6358 252.073 43.3819 251.382 42.8742 250.892C42.384 250.401 41.6925 250.156 40.7996 250.156C39.9942 250.156 39.3465 250.366 38.8562 250.786C38.366 251.189 38.0947 251.749 38.0422 252.467H34.7332C34.8033 250.874 35.381 249.613 36.4665 248.686C37.5519 247.758 38.9963 247.294 40.7996 247.294C42.0426 247.294 43.1193 247.53 44.0297 248.003C44.9576 248.458 45.6667 249.115 46.1569 249.972C46.6646 250.813 46.9184 251.811 46.9184 252.966V256.59C46.9184 257.746 46.6646 258.752 46.1569 259.61C45.6667 260.451 44.9576 261.107 44.0297 261.58C43.1193 262.035 42.0426 262.263 40.7996 262.263ZM48.8745 262.184V259.19H49.531C50.1263 259.19 50.5727 258.954 50.8703 258.481C51.1855 257.991 51.3518 257.22 51.3693 256.17L51.5269 247.556H62.0051V262H58.7224V250.55H54.757L54.652 256.354C54.6169 258.262 54.1705 259.715 53.3126 260.713C52.4723 261.694 51.2818 262.184 49.7411 262.184H48.8745ZM71.4456 262.263C70.2201 262.263 69.1521 262.026 68.2417 261.554C67.3313 261.081 66.6223 260.424 66.1146 259.584C65.6244 258.726 65.3792 257.728 65.3792 256.59V252.966C65.3792 251.828 65.6244 250.839 66.1146 249.999C66.6223 249.141 67.3313 248.475 68.2417 248.003C69.1521 247.53 70.2201 247.294 71.4456 247.294C72.6536 247.294 73.7041 247.53 74.5969 248.003C75.5073 248.475 76.2076 249.141 76.6978 249.999C77.2055 250.839 77.4594 251.828 77.4594 252.966V255.566H68.5569V256.59C68.5569 258.639 69.5285 259.663 71.4718 259.663C72.9775 259.663 73.8616 259.164 74.1242 258.166H77.3544C77.1093 259.409 76.444 260.407 75.3585 261.16C74.2906 261.895 72.9862 262.263 71.4456 262.263ZM68.5569 252.966V253.518L74.2818 253.491V252.94C74.2818 251.942 74.0454 251.18 73.5727 250.655C73.1 250.112 72.391 249.841 71.4456 249.841C70.4827 249.841 69.7561 250.112 69.2659 250.655C68.7932 251.198 68.5569 251.968 68.5569 252.966ZM80.2821 262V247.556H84.2213L86.007 252.992C86.1996 253.588 86.3572 254.148 86.4797 254.673C86.6023 255.198 86.6898 255.592 86.7423 255.855C86.7773 255.592 86.8561 255.198 86.9787 254.673C87.1012 254.148 87.2588 253.588 87.4514 252.992L89.1584 247.556H93.0975V262H90.0512V259.531C90.0512 258.866 90.06 258.113 90.0775 257.273C90.1125 256.433 90.1475 255.566 90.1826 254.673C90.2351 253.78 90.2788 252.931 90.3139 252.126C90.3664 251.303 90.4101 250.594 90.4452 249.999L88.1867 257.824H85.2454L82.9082 250.051C82.9432 250.611 82.987 251.285 83.0395 252.073C83.092 252.844 83.1358 253.675 83.1708 254.568C83.2233 255.443 83.2583 256.31 83.2759 257.168C83.3109 258.026 83.3284 258.814 83.3284 259.531V262H80.2821ZM101.987 262.263C100.761 262.263 99.6931 262.026 98.7827 261.554C97.8723 261.081 97.1632 260.424 96.6555 259.584C96.1653 258.726 95.9202 257.728 95.9202 256.59V252.966C95.9202 251.828 96.1653 250.839 96.6555 249.999C97.1632 249.141 97.8723 248.475 98.7827 248.003C99.6931 247.53 100.761 247.294 101.987 247.294C103.195 247.294 104.245 247.53 105.138 248.003C106.048 248.475 106.749 249.141 107.239 249.999C107.747 250.839 108 251.828 108 252.966V255.566H99.0978V256.59C99.0978 258.639 100.069 259.663 102.013 259.663C103.518 259.663 104.403 259.164 104.665 258.166H107.895C107.65 259.409 106.985 260.407 105.899 261.16C104.832 261.895 103.527 262.263 101.987 262.263ZM99.0978 252.966V253.518L104.823 253.491V252.94C104.823 251.942 104.586 251.18 104.114 250.655C103.641 250.112 102.932 249.841 101.987 249.841C101.024 249.841 100.297 250.112 99.8069 250.655C99.3342 251.198 99.0978 251.968 99.0978 252.966ZM111.375 262V247.556H114.657V253.124H119.804V247.556H123.087V262H119.804V256.091H114.657V262H111.375ZM130.847 262V250.498H125.91V247.556H139.093V250.498H134.156V262H130.847ZM147.772 262.236C145.916 262.236 144.445 261.729 143.36 260.713C142.274 259.68 141.732 258.297 141.732 256.564V252.992C141.732 251.259 142.274 249.885 143.36 248.869C144.445 247.836 145.916 247.32 147.772 247.32C149.628 247.32 151.098 247.836 152.184 248.869C153.269 249.885 153.812 251.25 153.812 252.966V256.564C153.812 258.297 153.269 259.68 152.184 260.713C151.098 261.729 149.628 262.236 147.772 262.236ZM147.772 259.374C148.647 259.374 149.321 259.138 149.794 258.665C150.284 258.175 150.529 257.474 150.529 256.564V252.992C150.529 252.082 150.284 251.39 149.794 250.918C149.321 250.428 148.647 250.182 147.772 250.182C146.896 250.182 146.214 250.428 145.723 250.918C145.251 251.39 145.014 252.082 145.014 252.992V256.564C145.014 257.474 145.251 258.175 145.723 258.665C146.214 259.138 146.896 259.374 147.772 259.374ZM157.186 262V247.556H163.646C165.239 247.556 166.5 247.898 167.428 248.581C168.356 249.246 168.82 250.139 168.82 251.259C168.82 252.135 168.531 252.844 167.953 253.386C167.393 253.912 166.631 254.183 165.668 254.2V254.358C166.771 254.393 167.655 254.726 168.321 255.356C168.986 255.986 169.319 256.827 169.319 257.877C169.319 259.138 168.837 260.144 167.874 260.897C166.929 261.632 165.642 262 164.014 262H157.186ZM160.39 253.491H163.567C164.215 253.491 164.723 253.343 165.091 253.045C165.458 252.73 165.642 252.301 165.642 251.758C165.642 251.215 165.458 250.795 165.091 250.498C164.723 250.182 164.215 250.025 163.567 250.025H160.39V253.491ZM160.39 259.531H163.83C164.548 259.531 165.108 259.365 165.511 259.032C165.913 258.682 166.115 258.201 166.115 257.588C166.115 256.975 165.913 256.503 165.511 256.17C165.108 255.82 164.548 255.645 163.83 255.645H160.39V259.531ZM187.727 262V247.556H191.01V253.124H196.157V247.556H199.439V262H196.157V256.091H191.01V262H187.727ZM207.252 262.263C205.764 262.263 204.591 261.877 203.733 261.107C202.875 260.319 202.446 259.251 202.446 257.903C202.446 256.485 202.936 255.391 203.917 254.621C204.897 253.833 206.263 253.439 208.013 253.439H211.48V252.231C211.48 251.531 211.243 250.988 210.771 250.603C210.316 250.217 209.677 250.025 208.854 250.025C208.083 250.025 207.462 250.191 206.989 250.524C206.516 250.856 206.263 251.268 206.228 251.758H203.102C203.172 250.41 203.741 249.333 204.809 248.528C205.895 247.705 207.287 247.294 208.985 247.294C210.771 247.294 212.18 247.731 213.213 248.607C214.246 249.482 214.762 250.681 214.762 252.205V262H211.585V259.558H211.532C211.34 260.398 210.867 261.063 210.114 261.554C209.361 262.026 208.407 262.263 207.252 262.263ZM208.328 259.82C209.256 259.82 210.009 259.593 210.587 259.138C211.182 258.665 211.48 258.043 211.48 257.273V255.54H208.092C207.357 255.54 206.779 255.732 206.359 256.117C205.939 256.485 205.729 256.993 205.729 257.641C205.729 258.323 205.956 258.857 206.411 259.243C206.884 259.628 207.523 259.82 208.328 259.82ZM216.482 262L219.397 254.594L216.692 247.556H219.633L221.944 253.938H222.916V247.556H225.332V253.938H226.304L228.746 247.556H231.556L228.851 254.516L231.766 262H228.851L226.33 255.356H225.332V262H222.916V255.356H221.892L219.502 262H216.482ZM237.793 262.263C236.305 262.263 235.132 261.877 234.274 261.107C233.416 260.319 232.987 259.251 232.987 257.903C232.987 256.485 233.477 255.391 234.458 254.621C235.438 253.833 236.804 253.439 238.554 253.439H242.021V252.231C242.021 251.531 241.784 250.988 241.312 250.603C240.857 250.217 240.217 250.025 239.395 250.025C238.624 250.025 238.003 250.191 237.53 250.524C237.057 250.856 236.804 251.268 236.769 251.758H233.643C233.713 250.41 234.282 249.333 235.35 248.528C236.436 247.705 237.828 247.294 239.526 247.294C241.312 247.294 242.721 247.731 243.754 248.607C244.787 249.482 245.303 250.681 245.303 252.205V262H242.126V259.558H242.073C241.881 260.398 241.408 261.063 240.655 261.554C239.902 262.026 238.948 262.263 237.793 262.263ZM238.869 259.82C239.797 259.82 240.55 259.593 241.128 259.138C241.723 258.665 242.021 258.043 242.021 257.273V255.54H238.633C237.898 255.54 237.32 255.732 236.9 256.117C236.48 256.485 236.27 256.993 236.27 257.641C236.27 258.323 236.497 258.857 236.952 259.243C237.425 259.628 238.064 259.82 238.869 259.82ZM253.011 262V250.498H248.074V247.556H261.257V250.498H256.32V262H253.011ZM264.079 262V247.556H267.047V254.673C267.047 255.146 267.021 255.689 266.968 256.301C266.933 256.914 266.881 257.518 266.811 258.113C266.74 258.709 266.67 259.225 266.6 259.663L271.748 247.556H275.792V262H272.824V254.883C272.824 254.411 272.842 253.885 272.877 253.308C272.929 252.73 272.982 252.161 273.034 251.601C273.104 251.04 273.166 250.568 273.218 250.182L268.124 262H264.079ZM285.232 262.263C284.007 262.263 282.939 262.026 282.028 261.554C281.118 261.081 280.409 260.424 279.901 259.584C279.411 258.726 279.166 257.728 279.166 256.59V252.966C279.166 251.828 279.411 250.839 279.901 249.999C280.409 249.141 281.118 248.475 282.028 248.003C282.939 247.53 284.007 247.294 285.232 247.294C286.44 247.294 287.491 247.53 288.384 248.003C289.294 248.475 289.994 249.141 290.485 249.999C290.992 250.839 291.246 251.828 291.246 252.966V255.566H282.344V256.59C282.344 258.639 283.315 259.663 285.259 259.663C286.764 259.663 287.648 259.164 287.911 258.166H291.141C290.896 259.409 290.231 260.407 289.145 261.16C288.077 261.895 286.773 262.263 285.232 262.263ZM282.344 252.966V253.518L288.069 253.491V252.94C288.069 251.942 287.832 251.18 287.359 250.655C286.887 250.112 286.178 249.841 285.232 249.841C284.269 249.841 283.543 250.112 283.053 250.655C282.58 251.198 282.344 251.968 282.344 252.966ZM294.069 262V247.556H298.008L299.794 252.992C299.986 253.588 300.144 254.148 300.266 254.673C300.389 255.198 300.477 255.592 300.529 255.855C300.564 255.592 300.643 255.198 300.765 254.673C300.888 254.148 301.046 253.588 301.238 252.992L302.945 247.556H306.884V262H303.838V259.531C303.838 258.866 303.847 258.113 303.864 257.273C303.899 256.433 303.934 255.566 303.969 254.673C304.022 253.78 304.066 252.931 304.101 252.126C304.153 251.303 304.197 250.594 304.232 249.999L301.973 257.824H299.032L296.695 250.051C296.73 250.611 296.774 251.285 296.826 252.073C296.879 252.844 296.923 253.675 296.958 254.568C297.01 255.443 297.045 256.31 297.063 257.168C297.098 258.026 297.115 258.814 297.115 259.531V262H294.069Z" fill="black"/>
</svg>
